<?xml version="1.0" encoding="UTF-8"?>
<!DOCTYPE svg PUBLIC "-//W3C//DTD SVG 1.1//EN" "http://www.w3.org/Graphics/SVG/1.1/DTD/svg11.dtd">
<svg xmlns="http://www.w3.org/2000/svg" version="1.1" width="612px" height="408px" style="shape-rendering:geometricPrecision; text-rendering:geometricPrecision; image-rendering:optimizeQuality; fill-rule:evenodd; clip-rule:evenodd" xmlns:xlink="http://www.w3.org/1999/xlink">
<g><path style="opacity:0.999" fill="#fac91c" d="M 439.5,128.5 C 443.151,128.746 446.651,128.746 450,128.5C 450.359,131.544 451.026,131.878 452,129.5C 452.645,130.646 453.478,131.646 454.5,132.5C 453.975,133.192 453.308,133.692 452.5,134C 455.167,135.333 457.833,136.667 460.5,138C 459.833,138.333 459.167,138.667 458.5,139C 459.641,139.741 459.641,140.575 458.5,141.5C 460.753,144.233 460.086,146.4 456.5,148C 459.237,151.381 460.904,155.214 461.5,159.5C 453.721,161.641 446.555,164.974 440,169.5C 439.667,169.167 439.333,168.833 439,168.5C 436.008,170.881 432.841,172.881 429.5,174.5C 428.5,174.5 427.5,174.5 426.5,174.5C 426.238,173.022 426.571,171.689 427.5,170.5C 430.568,171.234 431.068,170.234 429,167.5C 428.667,168.167 428.333,168.833 428,169.5C 426.956,168.377 426.29,167.044 426,165.5C 425.577,166.956 424.744,167.456 423.5,167C 424.458,165.853 424.125,164.853 422.5,164C 424.936,162.404 425.436,160.571 424,158.5C 423.667,159.167 423.333,159.833 423,160.5C 422.798,158.744 422.298,157.078 421.5,155.5C 420.5,158.167 419.5,158.167 418.5,155.5C 418.188,151.582 419.521,148.082 422.5,145C 420.106,143.449 418.773,141.282 418.5,138.5C 425.243,133.955 432.243,130.622 439.5,128.5 Z"/></g>
<g><path style="opacity:0.998" fill="#f9bd32" d="M 479.5,147.5 C 478.883,147.389 478.383,147.056 478,146.5C 477.306,147.818 476.473,148.651 475.5,149C 475.63,150.059 476.13,150.892 477,151.5C 478.84,150.167 479.34,150.334 478.5,152C 479.672,152.419 480.672,153.085 481.5,154C 479.874,153.805 478.207,153.805 476.5,154C 478.335,154.928 478.668,156.094 477.5,157.5C 478.025,158.192 478.692,158.692 479.5,159C 478.316,160.145 478.316,161.312 479.5,162.5C 476.95,161.642 474.45,160.642 472,159.5C 468.622,159.868 465.122,159.868 461.5,159.5C 460.904,155.214 459.237,151.381 456.5,148C 460.086,146.4 460.753,144.233 458.5,141.5C 459.641,140.575 459.641,139.741 458.5,139C 459.167,138.667 459.833,138.333 460.5,138C 457.833,136.667 455.167,135.333 452.5,134C 453.308,133.692 453.975,133.192 454.5,132.5C 453.478,131.646 452.645,130.646 452,129.5C 451.026,131.878 450.359,131.544 450,128.5C 446.651,128.746 443.151,128.746 439.5,128.5C 457.506,123.987 470.839,130.32 479.5,147.5 Z"/></g>
<g><path style="opacity:0.999" fill="#f9bb23" d="M 325.5,130.5 C 325.351,131.552 325.517,132.552 326,133.5C 328.043,131.033 330.21,131.033 332.5,133.5C 333.833,130.833 335.167,130.833 336.5,133.5C 339.473,132.307 339.973,132.973 338,135.5C 337.282,134.549 336.449,134.383 335.5,135C 336.891,137.39 338.891,139.057 341.5,140C 340.572,140.388 339.905,141.055 339.5,142C 340.424,143.15 340.424,144.15 339.5,145C 342.167,146 342.167,147 339.5,148C 343.5,149 343.5,150 339.5,151C 341.125,151.853 341.458,152.853 340.5,154C 342.421,154.36 344.088,155.194 345.5,156.5C 342.972,157.517 342.972,158.684 345.5,160C 342.635,160.837 339.802,161.67 337,162.5C 336.667,162.167 336.333,161.833 336,161.5C 335.302,162.691 334.469,163.691 333.5,164.5C 327.577,167.799 321.577,171.132 315.5,174.5C 313.821,174.285 312.821,174.952 312.5,176.5C 311.791,177.404 310.791,177.737 309.5,177.5C 310.925,175.59 311.592,172.757 311.5,169C 310.251,167.176 309.085,167.343 308,169.5C 307.696,167.559 306.863,165.893 305.5,164.5C 306.711,163.28 306.711,162.113 305.5,161C 307.991,160.374 307.991,159.541 305.5,158.5C 306.665,157.416 307.998,156.583 309.5,156C 306.631,154.252 303.964,152.252 301.5,150C 302.253,148.513 303.086,148.346 304,149.5C 304.915,148.672 305.581,147.672 306,146.5C 306.333,147.167 306.667,147.833 307,148.5C 307.667,147.167 307.667,145.833 307,144.5C 305.853,145.458 304.853,145.125 304,143.5C 302.807,144.978 302.307,146.312 302.5,147.5C 299.976,146.408 297.643,145.074 295.5,143.5C 304.378,137.312 314.044,132.645 324.5,129.5C 325.107,129.624 325.44,129.957 325.5,130.5 Z"/></g>
<g><path style="opacity:0.998" fill="#faae2a" d="M 401.5,148.5 C 402.167,148.5 402.833,148.5 403.5,148.5C 402.878,150.335 401.544,151.502 399.5,152C 402.167,152.667 402.167,153.333 399.5,154C 404.778,153.621 404.778,154.621 399.5,157C 401.883,157.065 402.55,157.898 401.5,159.5C 402.105,161.481 403.105,161.815 404.5,160.5C 405.308,160.808 405.975,161.308 406.5,162C 405.346,164.573 403.68,166.739 401.5,168.5C 401.977,169.478 402.643,170.311 403.5,171C 405.608,171.36 407.608,172.027 409.5,173C 408.039,174.351 406.706,175.851 405.5,177.5C 405.808,178.308 406.308,178.975 407,179.5C 407.667,178.167 408.333,176.833 409,175.5C 410.294,176.854 410.46,178.188 409.5,179.5C 410.167,179.833 410.833,180.167 411.5,180.5C 408.982,182.156 408.982,183.489 411.5,184.5C 407.614,187.754 403.28,190.421 398.5,192.5C 393.958,191.902 389.624,190.902 385.5,189.5C 385.5,188.167 384.833,187.5 383.5,187.5C 382.719,185.678 381.552,185.011 380,185.5C 374.222,172.335 364.555,164.668 351,162.5C 348.387,163.081 345.887,163.081 343.5,162.5C 341.197,163.953 339.03,164.953 337,165.5C 335.989,164.663 334.822,164.33 333.5,164.5C 334.469,163.691 335.302,162.691 336,161.5C 336.333,161.833 336.667,162.167 337,162.5C 339.802,161.67 342.635,160.837 345.5,160C 342.972,158.684 342.972,157.517 345.5,156.5C 344.088,155.194 342.421,154.36 340.5,154C 341.458,152.853 341.125,151.853 339.5,151C 343.5,150 343.5,149 339.5,148C 342.167,147 342.167,146 339.5,145C 340.424,144.15 340.424,143.15 339.5,142C 339.905,141.055 340.572,140.388 341.5,140C 338.891,139.057 336.891,137.39 335.5,135C 336.449,134.383 337.282,134.549 338,135.5C 339.973,132.973 339.473,132.307 336.5,133.5C 335.167,130.833 333.833,130.833 332.5,133.5C 330.21,131.033 328.043,131.033 326,133.5C 325.517,132.552 325.351,131.552 325.5,130.5C 329.437,130.793 333.27,130.46 337,129.5C 337.667,130.167 338.333,130.833 339,131.5C 339.85,130.576 340.85,130.576 342,131.5C 346.471,133.75 350.471,136.75 354,140.5C 357.468,145.31 360.968,150.143 364.5,155C 371.549,159.764 378.883,160.431 386.5,157C 390.635,153.583 395.635,150.749 401.5,148.5 Z"/></g>
<g><path style="opacity:0.999" fill="#f9ba22" d="M 553.5,143.5 C 550.462,145.131 549.796,146.964 551.5,149C 550.373,150.057 549.873,151.223 550,152.5C 551.777,152.165 553.277,152.999 554.5,155C 554.167,155.5 553.833,156 553.5,156.5C 553.167,155.833 552.833,155.167 552.5,154.5C 551.646,155.522 550.646,156.355 549.5,157C 550.854,158.294 552.188,158.46 553.5,157.5C 554.731,158.651 554.731,159.817 553.5,161C 557.487,163.422 557.154,165.422 552.5,167C 553.056,167.383 553.389,167.883 553.5,168.5C 548.425,171.31 543.425,174.31 538.5,177.5C 536.24,176.861 534.24,175.694 532.5,174C 533.167,173.667 533.833,173.333 534.5,173C 532.998,172.417 531.665,171.584 530.5,170.5C 531.229,168.405 530.563,166.572 528.5,165C 530.891,163.691 530.891,162.691 528.5,162C 533.833,161.333 533.833,160.667 528.5,160C 529.167,159.667 529.833,159.333 530.5,159C 528.226,157.248 526.226,155.248 524.5,153C 525.77,152.1 526.77,150.934 527.5,149.5C 528.258,150.811 529.258,151.311 530.5,151C 529.655,149.442 530.321,148.442 532.5,148C 530.5,147.333 528.5,146.667 526.5,146C 528.259,145.02 529.926,144.353 531.5,144C 530.956,143.283 530.289,142.783 529.5,142.5C 530.694,141.728 531.694,140.728 532.5,139.5C 534.428,137.887 536.762,136.887 539.5,136.5C 543.398,137.032 546.898,138.365 550,140.5C 550.333,140.167 550.667,139.833 551,139.5C 552.085,140.736 552.918,142.069 553.5,143.5 Z"/></g>
<g><path style="opacity:0.998" fill="#f9bb23" d="M 418.5,138.5 C 418.773,141.282 420.106,143.449 422.5,145C 419.521,148.082 418.188,151.582 418.5,155.5C 419.5,158.167 420.5,158.167 421.5,155.5C 422.298,157.078 422.798,158.744 423,160.5C 423.333,159.833 423.667,159.167 424,158.5C 425.436,160.571 424.936,162.404 422.5,164C 424.125,164.853 424.458,165.853 423.5,167C 424.744,167.456 425.577,166.956 426,165.5C 426.29,167.044 426.956,168.377 428,169.5C 428.333,168.833 428.667,168.167 429,167.5C 431.068,170.234 430.568,171.234 427.5,170.5C 426.571,171.689 426.238,173.022 426.5,174.5C 427.5,174.5 428.5,174.5 429.5,174.5C 423.862,178.323 417.862,181.656 411.5,184.5C 408.982,183.489 408.982,182.156 411.5,180.5C 410.833,180.167 410.167,179.833 409.5,179.5C 410.46,178.188 410.294,176.854 409,175.5C 408.333,176.833 407.667,178.167 407,179.5C 406.308,178.975 405.808,178.308 405.5,177.5C 406.706,175.851 408.039,174.351 409.5,173C 407.608,172.027 405.608,171.36 403.5,171C 402.643,170.311 401.977,169.478 401.5,168.5C 403.68,166.739 405.346,164.573 406.5,162C 405.975,161.308 405.308,160.808 404.5,160.5C 403.105,161.815 402.105,161.481 401.5,159.5C 402.55,157.898 401.883,157.065 399.5,157C 404.778,154.621 404.778,153.621 399.5,154C 402.167,153.333 402.167,152.667 399.5,152C 401.544,151.502 402.878,150.335 403.5,148.5C 404.167,147.833 404.833,147.167 405.5,146.5C 409.192,142.93 413.526,140.264 418.5,138.5 Z"/></g>
<g><path style="opacity:0.982" fill="#fcc885" d="M 532.5,139.5 C 531.694,140.728 530.694,141.728 529.5,142.5C 528.833,142.5 528.167,142.5 527.5,142.5C 528.401,140.273 530.067,139.273 532.5,139.5 Z"/></g>
<g><path style="opacity:0.999" fill="#fac91e" d="M 295.5,143.5 C 297.643,145.074 299.976,146.408 302.5,147.5C 302.307,146.312 302.807,144.978 304,143.5C 304.853,145.125 305.853,145.458 307,144.5C 307.667,145.833 307.667,147.167 307,148.5C 306.667,147.833 306.333,147.167 306,146.5C 305.581,147.672 304.915,148.672 304,149.5C 303.086,148.346 302.253,148.513 301.5,150C 303.964,152.252 306.631,154.252 309.5,156C 307.998,156.583 306.665,157.416 305.5,158.5C 307.991,159.541 307.991,160.374 305.5,161C 306.711,162.113 306.711,163.28 305.5,164.5C 306.863,165.893 307.696,167.559 308,169.5C 309.085,167.343 310.251,167.176 311.5,169C 311.592,172.757 310.925,175.59 309.5,177.5C 306.379,179.737 303.213,182.071 300,184.5C 294.827,186.237 289.327,189.07 283.5,193C 280.854,193.497 278.187,193.664 275.5,193.5C 273.25,193.819 271.25,193.319 269.5,192C 270.167,191.667 270.833,191.333 271.5,191C 271.124,189.16 269.957,187.327 268,185.5C 267.107,186.711 266.274,186.711 265.5,185.5C 266.833,184.167 266.833,182.833 265.5,181.5C 266.025,180.808 266.692,180.308 267.5,180C 264.215,178.628 263.549,176.961 265.5,175C 263.654,173.909 262.987,172.576 263.5,171C 264.167,170.667 264.833,170.333 265.5,170C 263.253,168.005 262.253,165.505 262.5,162.5C 262.833,162.5 263.167,162.5 263.5,162.5C 265.027,162.573 266.027,161.906 266.5,160.5C 276.41,153.766 286.077,148.1 295.5,143.5 Z"/></g>
<g><path style="opacity:0.998" fill="#faae27" d="M 527.5,142.5 C 528.167,142.5 528.833,142.5 529.5,142.5C 530.289,142.783 530.956,143.283 531.5,144C 529.926,144.353 528.259,145.02 526.5,146C 528.5,146.667 530.5,147.333 532.5,148C 530.321,148.442 529.655,149.442 530.5,151C 529.258,151.311 528.258,150.811 527.5,149.5C 526.77,150.934 525.77,152.1 524.5,153C 526.226,155.248 528.226,157.248 530.5,159C 529.833,159.333 529.167,159.667 528.5,160C 533.833,160.667 533.833,161.333 528.5,162C 530.891,162.691 530.891,163.691 528.5,165C 530.563,166.572 531.229,168.405 530.5,170.5C 531.665,171.584 532.998,172.417 534.5,173C 533.833,173.333 533.167,173.667 532.5,174C 534.24,175.694 536.24,176.861 538.5,177.5C 535.173,179.448 531.84,181.448 528.5,183.5C 526.821,183.285 525.821,183.952 525.5,185.5C 523.811,186.304 522.145,187.304 520.5,188.5C 519.914,188.291 519.414,187.957 519,187.5C 515.025,190.011 511.025,190.011 507,187.5C 506.667,187.833 506.333,188.167 506,188.5C 505.277,186.21 504.11,185.21 502.5,185.5C 502.5,184.167 501.833,183.5 500.5,183.5C 498.75,182.341 497.75,180.674 497.5,178.5C 496.878,176.878 495.878,175.545 494.5,174.5C 490.416,169.299 485.416,165.299 479.5,162.5C 478.316,161.312 478.316,160.145 479.5,159C 478.692,158.692 478.025,158.192 477.5,157.5C 478.668,156.094 478.335,154.928 476.5,154C 478.207,153.805 479.874,153.805 481.5,154C 480.672,153.085 479.672,152.419 478.5,152C 479.34,150.334 478.84,150.167 477,151.5C 476.13,150.892 475.63,150.059 475.5,149C 476.473,148.651 477.306,147.818 478,146.5C 478.383,147.056 478.883,147.389 479.5,147.5C 480.338,147.842 480.672,148.508 480.5,149.5C 480.5,150.833 481.167,151.5 482.5,151.5C 484.422,153.101 486.589,154.435 489,155.5C 490.343,154.786 491.676,155.12 493,156.5C 495,155.167 497,155.167 499,156.5C 507.981,152.839 516.481,148.339 524.5,143C 525.448,142.517 526.448,142.351 527.5,142.5 Z"/></g>
<g><path style="opacity:0.965" fill="#f5d39a" d="M 405.5,146.5 C 404.833,147.167 404.167,147.833 403.5,148.5C 402.833,148.5 402.167,148.5 401.5,148.5C 402.287,146.896 403.62,146.229 405.5,146.5 Z"/></g>
<g><path style="opacity:0.994" fill="#fbc836" d="M 553.5,143.5 C 558.714,148.547 563.381,154.047 567.5,160C 565.748,162.334 563.581,164.167 561,165.5C 560.667,165.167 560.333,164.833 560,164.5C 558.028,166.232 555.861,167.565 553.5,168.5C 553.389,167.883 553.056,167.383 552.5,167C 557.154,165.422 557.487,163.422 553.5,161C 554.731,159.817 554.731,158.651 553.5,157.5C 552.188,158.46 550.854,158.294 549.5,157C 550.646,156.355 551.646,155.522 552.5,154.5C 552.833,155.167 553.167,155.833 553.5,156.5C 553.833,156 554.167,155.5 554.5,155C 553.277,152.999 551.777,152.165 550,152.5C 549.873,151.223 550.373,150.057 551.5,149C 549.796,146.964 550.462,145.131 553.5,143.5 Z"/></g>
<g><path style="opacity:0.048" fill="#e5e6e5" d="M 480.5,149.5 C 481.5,149.833 482.167,150.5 482.5,151.5C 481.167,151.5 480.5,150.833 480.5,149.5 Z"/></g>
<g><path style="opacity:0.922" fill="#fcd79a" d="M 266.5,160.5 C 266.027,161.906 265.027,162.573 263.5,162.5C 263.973,161.094 264.973,160.427 266.5,160.5 Z"/></g>
<g><path style="opacity:0.998" fill="#fabc38" d="M 262.5,162.5 C 262.253,165.505 263.253,168.005 265.5,170C 264.833,170.333 264.167,170.667 263.5,171C 262.987,172.576 263.654,173.909 265.5,175C 263.549,176.961 264.215,178.628 267.5,180C 266.692,180.308 266.025,180.808 265.5,181.5C 266.833,182.833 266.833,184.167 265.5,185.5C 266.274,186.711 267.107,186.711 268,185.5C 269.957,187.327 271.124,189.16 271.5,191C 270.833,191.333 270.167,191.667 269.5,192C 271.25,193.319 273.25,193.819 275.5,193.5C 271.723,195.021 268.223,194.355 265,191.5C 264.667,191.833 264.333,192.167 264,192.5C 257.654,188.113 252.32,182.113 248,174.5C 247.667,174.833 247.333,175.167 247,175.5C 246.28,173.888 246.446,172.388 247.5,171C 252.409,167.906 257.409,165.073 262.5,162.5 Z"/></g>
<g><path style="opacity:0.034" fill="#e5e6e5" d="M 315.5,174.5 C 314.71,175.401 313.71,176.068 312.5,176.5C 312.821,174.952 313.821,174.285 315.5,174.5 Z"/></g>
<g><path style="opacity:0.049" fill="#e5e6e5" d="M 494.5,174.5 C 495.878,175.545 496.878,176.878 497.5,178.5C 495.468,177.952 494.468,176.619 494.5,174.5 Z"/></g>
<g><path style="opacity:0.06" fill="#e5e6e5" d="M 500.5,183.5 C 501.833,183.5 502.5,184.167 502.5,185.5C 501.5,185.167 500.833,184.5 500.5,183.5 Z"/></g>
<g><path style="opacity:0.037" fill="#e5e6e5" d="M 528.5,183.5 C 527.71,184.401 526.71,185.068 525.5,185.5C 525.821,183.952 526.821,183.285 528.5,183.5 Z"/></g>
<g><path style="opacity:0.413" fill="#b4b9c6" d="M 347.5,186.5 C 341.833,186.5 336.167,186.5 330.5,186.5C 335.59,184.758 340.923,184.258 346.5,185C 347.056,185.383 347.389,185.883 347.5,186.5 Z"/></g>
<g><path style="opacity:0.999" fill="#1e2e5b" d="M 330.5,186.5 C 336.167,186.5 341.833,186.5 347.5,186.5C 347.198,216.181 347.532,245.848 348.5,275.5C 348.167,276.833 347.833,278.167 347.5,279.5C 342.672,278.682 338.006,278.349 333.5,278.5C 333.768,276.901 333.434,275.568 332.5,274.5C 332.827,267.458 331.161,267.458 327.5,274.5C 327.167,274.5 326.833,274.5 326.5,274.5C 325.167,274.833 325.167,275.167 326.5,275.5C 316.485,280.775 306.485,280.775 296.5,275.5C 295.71,274.599 294.71,273.932 293.5,273.5C 287.028,267.665 283.694,260.332 283.5,251.5C 283.5,248.167 283.5,244.833 283.5,241.5C 283.5,239.167 283.5,236.833 283.5,234.5C 284.167,234.5 284.5,234.167 284.5,233.5C 284.5,233.167 284.5,232.833 284.5,232.5C 285.167,232.5 285.5,232.167 285.5,231.5C 285.5,231.167 285.5,230.833 285.5,230.5C 286.11,229.609 286.443,228.609 286.5,227.5C 287.117,225.771 288.117,224.271 289.5,223C 288.167,221.16 288.334,220.66 290,221.5C 290.717,220.956 291.217,220.289 291.5,219.5C 292.5,219.167 293.167,218.5 293.5,217.5C 294.045,215.958 295.711,215.125 298.5,215C 299.035,212.891 300.035,212.391 301.5,213.5C 305.462,210.962 309.796,209.962 314.5,210.5C 315.209,211.404 316.209,211.737 317.5,211.5C 318.496,211.586 319.329,211.252 320,210.5C 321.155,211.338 322.322,212.338 323.5,213.5C 324.167,213.833 324.833,214.167 325.5,214.5C 325.842,215.338 326.508,215.672 327.5,215.5C 327.5,216.167 327.833,216.5 328.5,216.5C 328.987,217.473 329.487,218.473 330,219.5C 330.5,208.505 330.667,197.505 330.5,186.5 Z M 317.5,223.5 C 318.006,225.105 318.673,225.439 319.5,224.5C 321.011,225.502 322.678,226.169 324.5,226.5C 324.413,229.598 324.913,229.932 326,227.5C 327.705,229.577 328.872,231.91 329.5,234.5C 328.427,235.251 328.26,236.251 329,237.5C 329.383,236.944 329.883,236.611 330.5,236.5C 330.5,242.167 330.5,247.833 330.5,253.5C 326.398,254.609 324.731,257.275 325.5,261.5C 324.267,263.796 322.267,265.13 319.5,265.5C 315.535,267.073 311.868,266.407 308.5,263.5C 308.5,262.833 308.167,262.5 307.5,262.5C 306.729,259.668 306.062,259.335 305.5,261.5C 303.571,259.94 302.238,257.94 301.5,255.5C 302.686,254.039 302.686,252.705 301.5,251.5C 301.454,247.862 301.121,244.195 300.5,240.5C 300.343,239.127 300.51,237.793 301,236.5C 302.462,234.563 303.628,232.563 304.5,230.5C 307.402,225.877 311.735,223.543 317.5,223.5 Z M 332.5,274.5 C 330.833,274.5 329.167,274.5 327.5,274.5C 331.161,267.458 332.827,267.458 332.5,274.5 Z"/></g>
<g><path style="opacity:0.044" fill="#e5e6e5" d="M 383.5,187.5 C 384.833,187.5 385.5,188.167 385.5,189.5C 384.5,189.167 383.833,188.5 383.5,187.5 Z"/></g>
<g><path style="opacity:0.041" fill="#e5e6e5" d="M 81.5,210.5 C 79.1667,210.5 76.8333,210.5 74.5,210.5C 76.5563,209.784 78.723,209.117 81,208.5C 81.4643,209.094 81.631,209.761 81.5,210.5 Z"/></g>
<g><path style="opacity:0.037" fill="#d1d3d8" d="M 172.5,210.5 C 174.134,209.839 175.967,209.506 178,209.5C 180.295,209.547 182.129,210.213 183.5,211.5C 179.865,210.886 176.198,210.552 172.5,210.5 Z"/></g>
<g><path style="opacity:0.004" fill="#e5e6e5" d="M 50.5,210.5 C 51.8333,211.167 51.8333,211.167 50.5,210.5 Z"/></g>
<g><path style="opacity:0.004" fill="#e5e6e5" d="M 55.5,210.5 C 56.8333,211.167 56.8333,211.167 55.5,210.5 Z"/></g>
<g><path style="opacity:0.039" fill="#e5e6e5" d="M 72.5,211.5 C 72.5,212.167 72.1667,212.5 71.5,212.5C 70.3207,210.591 70.654,210.258 72.5,211.5 Z"/></g>
<g><path style="opacity:1" fill="#20305c" d="M 74.5,210.5 C 76.8333,210.5 79.1667,210.5 81.5,210.5C 88.8279,211.996 94.3279,215.996 98,222.5C 100.04,220.63 101.873,218.63 103.5,216.5C 104.167,216.5 104.5,216.167 104.5,215.5C 107.167,215.167 107.167,214.833 104.5,214.5C 107.443,213.633 110.443,212.633 113.5,211.5C 116.167,211.167 118.833,210.833 121.5,210.5C 130.208,211.894 136.208,216.561 139.5,224.5C 139.5,225.167 139.5,225.833 139.5,226.5C 140.11,227.391 140.443,228.391 140.5,229.5C 140.5,230.5 140.5,231.5 140.5,232.5C 140.263,233.791 140.596,234.791 141.5,235.5C 141.5,249.833 141.5,264.167 141.5,278.5C 135.749,279.112 130.415,279.112 125.5,278.5C 125.5,277.833 125.5,277.167 125.5,276.5C 125.5,276.167 125.5,275.833 125.5,275.5C 125.5,275.167 125.5,274.833 125.5,274.5C 125.5,270.833 125.5,267.167 125.5,263.5C 125.5,263.167 125.5,262.833 125.5,262.5C 125.5,261.833 125.5,261.167 125.5,260.5C 125.5,259.833 125.5,259.167 125.5,258.5C 125.5,257.833 125.5,257.167 125.5,256.5C 125.5,255.833 125.5,255.167 125.5,254.5C 125.5,251.167 125.5,247.833 125.5,244.5C 125.5,244.167 125.5,243.833 125.5,243.5C 125.5,242.833 125.5,242.167 125.5,241.5C 125.784,239.585 125.451,237.919 124.5,236.5C 124.672,235.508 124.338,234.842 123.5,234.5C 123.634,232.708 123.301,231.042 122.5,229.5C 122.5,228.833 122.167,228.5 121.5,228.5C 121.5,227.833 121.167,227.5 120.5,227.5C 120.5,226.833 120.167,226.5 119.5,226.5C 117.562,226.777 115.562,226.11 113.5,224.5C 107.265,225.071 103.598,228.404 102.5,234.5C 101.662,234.842 101.328,235.508 101.5,236.5C 100.504,250.323 100.171,264.323 100.5,278.5C 95.2412,279.002 90.0745,279.002 85,278.5C 84.5001,264.171 84.3334,249.837 84.5,235.5C 84.7373,234.209 84.404,233.209 83.5,232.5C 83.4431,231.391 83.1098,230.391 82.5,229.5C 82.5,228.833 82.1667,228.5 81.5,228.5C 81.5,227.833 81.1667,227.5 80.5,227.5C 80.5,226.833 80.1667,226.5 79.5,226.5C 78.8333,225.167 78.1667,225.167 77.5,226.5C 75.9505,225.559 74.2838,224.893 72.5,224.5C 71.5084,224.328 70.8417,224.662 70.5,225.5C 65.7566,226.653 63.09,229.653 62.5,234.5C 61.7171,236.343 61.0505,238.343 60.5,240.5C 61.2578,252.409 61.2578,264.076 60.5,275.5C 60.5,276.5 60.5,277.5 60.5,278.5C 55.1463,278.569 49.813,278.902 44.5,279.5C 44.5,259.167 44.5,238.833 44.5,218.5C 44.5,216.5 44.5,214.5 44.5,212.5C 49.1667,212.5 53.8333,212.5 58.5,212.5C 58.2114,215.649 58.7114,218.649 60,221.5C 60.5133,220.473 61.0133,219.473 61.5,218.5C 62.1667,218.5 62.5,218.167 62.5,217.5C 63.1667,217.5 63.5,217.167 63.5,216.5C 64.1667,216.5 64.5,216.167 64.5,215.5C 64.8333,215.5 65.1667,215.5 65.5,215.5C 66.1667,215.5 66.5,215.167 66.5,214.5C 68.1667,213.833 69.8333,213.167 71.5,212.5C 72.1667,212.5 72.5,212.167 72.5,211.5C 73.4916,211.672 74.1583,211.338 74.5,210.5 Z"/></g>
<g><path style="opacity:0.661" fill="#a3a8b9" d="M 121.5,210.5 C 118.833,210.833 116.167,211.167 113.5,211.5C 115.744,210.07 118.244,209.07 121,208.5C 121.464,209.094 121.631,209.761 121.5,210.5 Z"/></g>
<g><path style="opacity:1" fill="#1f2f5b" d="M 172.5,210.5 C 176.198,210.552 179.865,210.886 183.5,211.5C 191.556,212.521 197.556,216.521 201.5,223.5C 201.833,224.167 202.167,224.833 202.5,225.5C 202.892,227.179 203.392,228.846 204,230.5C 204.214,245.852 204.714,261.185 205.5,276.5C 205.167,277.5 204.833,278.5 204.5,279.5C 199.672,278.682 195.006,278.349 190.5,278.5C 190.768,276.901 190.434,275.568 189.5,274.5C 189.649,273.448 189.483,272.448 189,271.5C 188.292,272.381 187.458,273.047 186.5,273.5C 185.5,273.833 184.833,274.5 184.5,275.5C 183.833,275.5 183.5,275.833 183.5,276.5C 177.42,278.877 171.087,279.877 164.5,279.5C 160.475,278.689 156.975,276.689 154,273.5C 153.667,273.833 153.333,274.167 153,274.5C 151.459,270.518 150.292,266.518 149.5,262.5C 149.5,260.833 149.5,259.167 149.5,257.5C 148.983,253.065 150.316,249.398 153.5,246.5C 153.833,245.833 154.167,245.167 154.5,244.5C 157.048,242.058 160.048,240.392 163.5,239.5C 164.167,239.5 164.5,239.167 164.5,238.5C 165.167,238.5 165.833,238.5 166.5,238.5C 167.167,238.5 167.5,238.167 167.5,237.5C 167.833,237.5 168.167,237.5 168.5,237.5C 169.833,237.167 171.167,236.833 172.5,236.5C 176.36,236.192 180.026,235.525 183.5,234.5C 184.833,234.5 186.167,234.5 187.5,234.5C 188.039,230.584 186.706,227.584 183.5,225.5C 182.739,224.609 181.739,223.942 180.5,223.5C 175.672,223.469 170.672,223.635 165.5,224C 164.473,224.513 163.473,225.013 162.5,225.5C 162.167,225.5 161.833,225.5 161.5,225.5C 160.508,225.328 159.842,225.662 159.5,226.5C 159.167,226.5 158.833,226.5 158.5,226.5C 157.833,226.833 157.167,227.167 156.5,227.5C 156.5,227.167 156.5,226.833 156.5,226.5C 155.89,225.609 155.557,224.609 155.5,223.5C 154.365,221.255 153.865,218.922 154,216.5C 156.058,215.771 157.891,214.771 159.5,213.5C 160.167,213.5 160.833,213.5 161.5,213.5C 165.123,212.344 168.789,211.344 172.5,210.5 Z M 181.5,246.5 C 184.059,246.198 186.393,246.532 188.5,247.5C 187.219,250.788 186.885,254.121 187.5,257.5C 184.431,258.804 183.431,260.804 184.5,263.5C 184.027,264.906 183.027,265.573 181.5,265.5C 181.265,264.903 180.765,264.57 180,264.5C 178.5,265 177,265.5 175.5,266C 176.737,266.232 177.737,266.732 178.5,267.5C 175.119,267.54 171.786,267.207 168.5,266.5C 168.649,265.448 168.483,264.448 168,263.5C 167.346,264.696 166.846,264.696 166.5,263.5C 167.363,262.274 167.363,260.94 166.5,259.5C 167.234,258.122 167.901,256.622 168.5,255C 167.906,254.536 167.239,254.369 166.5,254.5C 168.697,250.72 172.03,248.386 176.5,247.5C 176.56,248.043 176.893,248.376 177.5,248.5C 179.026,248.006 180.359,247.339 181.5,246.5 Z M 189.5,274.5 C 188.209,274.737 187.209,274.404 186.5,273.5C 187.458,273.047 188.292,272.381 189,271.5C 189.483,272.448 189.649,273.448 189.5,274.5 Z"/></g>
<g><path style="opacity:0.046" fill="#e5e6e5" d="M 215.5,212.5 C 214.833,212.833 214.167,213.167 213.5,213.5C 213.345,210.147 214.012,209.814 215.5,212.5 Z"/></g>
<g><path style="opacity:0.008" fill="#e5e6e5" d="M 222.5,210.5 C 223.833,211.167 223.833,211.167 222.5,210.5 Z"/></g>
<g><path style="opacity:0.016" fill="#e5e6e5" d="M 244.5,211.5 C 243.833,210.167 243.833,210.167 244.5,211.5 Z"/></g>
<g><path style="opacity:1" fill="#1f2f5b" d="M 253.5,210.5 C 254.568,211.434 255.901,211.768 257.5,211.5C 258.167,211.5 258.833,211.5 259.5,211.5C 261.5,212.5 263.5,213.5 265.5,214.5C 268.19,216.193 270.19,218.527 271.5,221.5C 271.833,222.167 272.167,222.833 272.5,223.5C 273.11,224.391 273.443,225.391 273.5,226.5C 273.833,227.167 274.167,227.833 274.5,228.5C 274.5,229.5 274.5,230.5 274.5,231.5C 274.5,232.167 274.833,232.5 275.5,232.5C 275.667,247.837 275.5,263.17 275,278.5C 269.565,279.48 264.065,279.48 258.5,278.5C 258.816,263.755 258.483,249.088 257.5,234.5C 257.5,233.833 257.5,233.167 257.5,232.5C 257.5,231.833 257.167,231.5 256.5,231.5C 256.5,231.167 256.5,230.833 256.5,230.5C 256.167,229.833 255.833,229.167 255.5,228.5C 253.087,226.127 250.087,224.794 246.5,224.5C 245.353,224.818 244.519,225.484 244,226.5C 243,226.167 242,225.833 241,225.5C 237.586,227.379 235.419,229.713 234.5,232.5C 234.167,233.167 233.833,233.833 233.5,234.5C 232.521,237.625 232.187,240.958 232.5,244.5C 232.5,247.833 232.5,251.167 232.5,254.5C 232.5,257.833 232.5,261.167 232.5,264.5C 232.5,267.833 232.5,271.167 232.5,274.5C 232.5,275.833 232.5,277.167 232.5,278.5C 229.5,278.5 226.5,278.5 223.5,278.5C 221.167,278.5 218.833,278.5 216.5,278.5C 216.83,259.326 216.497,240.326 215.5,221.5C 215.5,218.5 215.5,215.5 215.5,212.5C 220.695,212.179 225.695,212.513 230.5,213.5C 230.5,213.833 230.5,214.167 230.5,214.5C 230.205,216.735 230.539,218.735 231.5,220.5C 231.833,221.833 232.167,221.833 232.5,220.5C 232.5,220.167 232.5,219.833 232.5,219.5C 233.167,219.5 233.5,219.167 233.5,218.5C 234.167,218.5 234.5,218.167 234.5,217.5C 236.857,216.406 238.69,214.739 240,212.5C 240.977,213.774 241.811,213.774 242.5,212.5C 243.492,212.672 244.158,212.338 244.5,211.5C 247.455,210.841 250.455,210.508 253.5,210.5 Z"/></g>
<g><path style="opacity:0.682" fill="#a1a7b7" d="M 257.5,211.5 C 255.901,211.768 254.568,211.434 253.5,210.5C 254.958,208.145 256.292,208.478 257.5,211.5 Z"/></g>
<g><path style="opacity:0.016" fill="#e5e6e5" d="M 259.5,210.5 C 260.833,211.167 260.833,211.167 259.5,210.5 Z"/></g>
<g><path style="opacity:0.371" fill="#abb0bf" d="M 317.5,211.5 C 316.209,211.737 315.209,211.404 314.5,210.5C 317.076,208.883 318.076,209.217 317.5,211.5 Z"/></g>
<g><path style="opacity:0.01" fill="#e5e6e5" d="M 364.5,211.5 C 364.897,210.475 365.563,210.308 366.5,211C 365.906,211.464 365.239,211.631 364.5,211.5 Z"/></g>
<g><path style="opacity:0.025" fill="#e5e6e5" d="M 417.5,211.5 C 419.288,210.378 421.288,210.211 423.5,211C 421.527,211.495 419.527,211.662 417.5,211.5 Z"/></g>
<g><path style="opacity:0.038" fill="#e5e6e5" d="M 427.5,213.5 C 426.5,213.5 425.5,213.5 424.5,213.5C 424.5,213.167 424.5,212.833 424.5,212.5C 426.649,209.666 427.649,209.999 427.5,213.5 Z"/></g>
<g><path style="opacity:0.012" fill="#e5e6e5" d="M 438.5,211.5 C 438.897,210.475 439.563,210.308 440.5,211C 439.906,211.464 439.239,211.631 438.5,211.5 Z"/></g>
<g><path style="opacity:0.027" fill="#e5e6e5" d="M 60.5,213.5 C 59.475,213.103 59.3083,212.437 60,211.5C 60.4643,212.094 60.631,212.761 60.5,213.5 Z"/></g>
<g><path style="opacity:0.041" fill="#e5e6e5" d="M 161.5,213.5 C 160.833,213.5 160.167,213.5 159.5,213.5C 158.127,213.657 156.793,213.49 155.5,213C 157.556,212.689 159.556,212.189 161.5,211.5C 162.463,211.97 162.463,212.637 161.5,213.5 Z"/></g>
<g><path style="opacity:0.012" fill="#e5e6e5" d="M 242.5,212.5 C 241.833,211.167 241.833,211.167 242.5,212.5 Z"/></g>
<g><path style="opacity:0.052" fill="#e5e6e5" d="M 328.5,216.5 C 327.833,216.5 327.5,216.167 327.5,215.5C 327.158,214.662 326.492,214.328 325.5,214.5C 324.833,214.167 324.167,213.833 323.5,213.5C 323.783,212.711 324.283,212.044 325,211.5C 326.049,213.107 327.549,213.773 329.5,213.5C 329.737,214.791 329.404,215.791 328.5,216.5 Z"/></g>
<g><path style="opacity:0.024" fill="#e5e6e5" d="M 359.5,212.5 C 358.425,213.562 357.425,213.562 356.5,212.5C 357.614,211.224 358.614,211.224 359.5,212.5 Z"/></g>
<g><path style="opacity:0.027" fill="#e5e6e5" d="M 387.5,212.5 C 386.833,211.167 386.833,211.167 387.5,212.5 Z"/></g>
<g><path style="opacity:0.035" fill="#e5e6e5" d="M 91.5,212.5 C 92.8333,213.167 92.8333,213.167 91.5,212.5 Z"/></g>
<g><path style="opacity:0.02" fill="#e5e6e5" d="M 193.5,212.5 C 194.833,213.167 194.833,213.167 193.5,212.5 Z"/></g>
<g><path style="opacity:1" fill="#1b2c59" d="M 359.5,212.5 C 364.833,212.5 370.167,212.5 375.5,212.5C 375.328,213.492 375.662,214.158 376.5,214.5C 376.5,217.5 376.5,220.5 376.5,223.5C 375.167,227.167 375.167,230.833 376.5,234.5C 376.5,237.5 376.5,240.5 376.5,243.5C 375.167,248.167 375.167,252.833 376.5,257.5C 376.5,259.833 376.5,262.167 376.5,264.5C 375.167,268.167 375.167,271.833 376.5,275.5C 376.5,276.5 376.5,277.5 376.5,278.5C 373.167,278.5 369.833,278.5 366.5,278.5C 364.167,278.5 361.833,278.5 359.5,278.5C 359.5,256.5 359.5,234.5 359.5,212.5 Z"/></g>
<g><path style="opacity:0.016" fill="#e5e6e5" d="M 386.5,212.5 C 385.833,213.167 385.833,213.167 386.5,212.5 Z"/></g>
<g><path style="opacity:1" fill="#1c2d59" d="M 387.5,212.5 C 392.167,212.5 396.833,212.5 401.5,212.5C 401.216,214.415 401.549,216.081 402.5,217.5C 402.338,219.527 402.505,221.527 403,223.5C 404.344,220.728 406.177,218.395 408.5,216.5C 409.167,216.5 409.5,216.167 409.5,215.5C 410.167,215.5 410.5,215.167 410.5,214.5C 415.061,213.189 419.728,212.522 424.5,212.5C 424.5,212.833 424.5,213.167 424.5,213.5C 424.772,216.438 424.772,219.438 424.5,222.5C 424.5,224.167 424.5,225.833 424.5,227.5C 422.5,227.167 420.5,226.833 418.5,226.5C 417.209,226.263 416.209,226.596 415.5,227.5C 409.482,229.15 405.982,233.15 405,239.5C 404.5,252.496 404.333,265.496 404.5,278.5C 402.167,278.5 399.833,278.5 397.5,278.5C 394.167,278.5 390.833,278.5 387.5,278.5C 387.5,277.167 387.5,275.833 387.5,274.5C 387.5,271.167 387.5,267.833 387.5,264.5C 387.5,261.167 387.5,257.833 387.5,254.5C 387.5,251.167 387.5,247.833 387.5,244.5C 387.5,241.167 387.5,237.833 387.5,234.5C 387.5,230.833 387.5,227.167 387.5,223.5C 387.305,220.044 387.305,216.378 387.5,212.5 Z"/></g>
<g><path style="opacity:1" fill="#1f2f5b" d="M 432.5,212.5 C 438.026,212.179 443.36,212.512 448.5,213.5C 448.5,216.833 448.5,220.167 448.5,223.5C 448.566,240.502 448.566,257.502 448.5,274.5C 448.5,275.833 448.5,277.167 448.5,278.5C 442.686,278.997 437.352,278.997 432.5,278.5C 432.5,256.5 432.5,234.5 432.5,212.5 Z"/></g>
<g><path style="opacity:0.044" fill="#e5e6e5" d="M 60.5,213.5 C 62.7354,213.205 64.7354,213.539 66.5,214.5C 65.8333,214.5 65.5,214.833 65.5,215.5C 65.1667,215.5 64.8333,215.5 64.5,215.5C 63.8333,215.5 63.5,215.833 63.5,216.5C 62.8333,216.5 62.5,216.833 62.5,217.5C 61.8333,217.5 61.5,217.833 61.5,218.5C 60.5489,217.081 60.2155,215.415 60.5,213.5 Z"/></g>
<g><path style="opacity:0.016" fill="#e5e6e5" d="M 213.5,213.5 C 212.833,214.167 212.833,214.167 213.5,213.5 Z"/></g>
<g><path style="opacity:0.04" fill="#e5e6e5" d="M 230.5,214.5 C 230.5,214.167 230.5,213.833 230.5,213.5C 231.833,213.5 233.167,213.5 234.5,213.5C 234.5,214.833 234.5,216.167 234.5,217.5C 233.833,217.5 233.5,217.833 233.5,218.5C 232.833,218.5 232.5,218.833 232.5,219.5C 232.5,219.833 232.5,220.167 232.5,220.5C 232.167,220.5 231.833,220.5 231.5,220.5C 231.795,218.265 231.461,216.265 230.5,214.5 Z"/></g>
<g><path style="opacity:0.016" fill="#e5e6e5" d="M 265.5,213.5 C 266.833,214.167 266.833,214.167 265.5,213.5 Z"/></g>
<g><path style="opacity:0.038" fill="#e5e6e5" d="M 348.5,213.5 C 349.641,216.64 349.808,219.973 349,223.5C 348.502,220.183 348.335,216.85 348.5,213.5 Z"/></g>
<g><path style="opacity:0.718" fill="#9da3b4" d="M 376.5,214.5 C 375.662,214.158 375.328,213.492 375.5,212.5C 376.648,211.105 377.648,211.272 378.5,213C 377.584,213.278 376.918,213.778 376.5,214.5 Z"/></g>
<g><path style="opacity:0.05" fill="#dcdde0" d="M 410.5,214.5 C 409.833,214.5 409.5,214.833 409.5,215.5C 409.5,216.167 409.167,216.5 408.5,216.5C 407.596,215.791 407.263,214.791 407.5,213.5C 408.791,213.263 409.791,213.596 410.5,214.5 Z"/></g>
<g><path style="opacity:0.023" fill="#e5e6e5" d="M 427.5,213.5 C 428.833,213.5 430.167,213.5 431.5,213.5C 431.5,214.167 431.5,214.833 431.5,215.5C 428.444,216.839 427.944,218.839 430,221.5C 430.383,220.944 430.883,220.611 431.5,220.5C 431.5,221.5 431.5,222.5 431.5,223.5C 430.167,223.5 428.833,223.5 427.5,223.5C 427.5,220.167 427.5,216.833 427.5,213.5 Z"/></g>
<g><path style="opacity:0.025" fill="#e5e6e5" d="M 448.5,213.5 C 449.239,213.369 449.906,213.536 450.5,214C 449.868,217.27 449.201,220.437 448.5,223.5C 448.5,220.167 448.5,216.833 448.5,213.5 Z"/></g>
<g><path style="opacity:0.027" fill="#e5e6e5" d="M 104.5,214.5 C 104.5,214.833 104.5,215.167 104.5,215.5C 103.833,215.5 103.5,215.833 103.5,216.5C 102.243,215.377 102.576,214.711 104.5,214.5 Z"/></g>
<g><path style="opacity:0.017" fill="#e5e6e5" d="M 151.5,214.5 C 152.613,215.946 152.78,217.613 152,219.5C 151.506,217.866 151.34,216.199 151.5,214.5 Z"/></g>
<g><path style="opacity:0.706" fill="#939aae" d="M 402.5,217.5 C 401.549,216.081 401.216,214.415 401.5,212.5C 402.789,211.499 404.122,211.666 405.5,213C 404.552,213.483 403.552,213.649 402.5,213.5C 402.5,214.833 402.5,216.167 402.5,217.5 Z"/></g>
<g><path style="opacity:0.025" fill="#d8d9dd" d="M 44.5,212.5 C 44.5,214.5 44.5,216.5 44.5,218.5C 43.6981,219.952 43.1981,221.618 43,223.5C 42.8333,222.5 42.6667,221.5 42.5,220.5C 43.3416,218.235 43.3416,216.068 42.5,214C 43.0442,213.283 43.7109,212.783 44.5,212.5 Z"/></g>
<g><path style="opacity:0.008" fill="#e5e6e5" d="M 293.5,217.5 C 292.833,216.167 292.833,216.167 293.5,217.5 Z"/></g>
<g><path style="opacity:0.008" fill="#e5e6e5" d="M 291.5,219.5 C 290.833,218.167 290.833,218.167 291.5,219.5 Z"/></g>
<g><path style="opacity:0.71" fill="#77809a" d="M 215.5,221.5 C 216.497,240.326 216.83,259.326 216.5,278.5C 215.114,275.785 214.447,272.785 214.5,269.5C 215.165,264.519 215.498,259.519 215.5,254.5C 215.5,251.167 215.5,247.833 215.5,244.5C 214.566,236.767 214.566,229.101 215.5,221.5 Z"/></g>
<g><path style="opacity:0.031" fill="#d3d5da" d="M 271.5,221.5 C 273.424,221.711 273.757,222.377 272.5,223.5C 272.167,222.833 271.833,222.167 271.5,221.5 Z"/></g>
<g><path style="opacity:0.026" fill="#e5e6e5" d="M 424.5,222.5 C 425.391,223.11 426.391,223.443 427.5,223.5C 427.657,224.873 427.49,226.207 427,227.5C 426.23,226.402 425.397,226.402 424.5,227.5C 424.5,225.833 424.5,224.167 424.5,222.5 Z"/></g>
<g><path style="opacity:0.033" fill="#dadbde" d="M 139.5,224.5 C 139.56,223.957 139.893,223.624 140.5,223.5C 142.593,227.378 142.926,231.378 141.5,235.5C 140.596,234.791 140.263,233.791 140.5,232.5C 141.833,231.5 141.833,230.5 140.5,229.5C 140.443,228.391 140.11,227.391 139.5,226.5C 140.833,225.833 140.833,225.167 139.5,224.5 Z"/></g>
<g><path style="opacity:0.034" fill="#e5e6e5" d="M 155.5,223.5 C 155.557,224.609 155.89,225.609 156.5,226.5C 154.804,226.315 153.471,225.481 152.5,224C 153.448,223.517 154.448,223.351 155.5,223.5 Z"/></g>
<g><path style="opacity:0.088" fill="#d3d5da" d="M 201.5,223.5 C 203.424,223.711 203.757,224.377 202.5,225.5C 202.167,224.833 201.833,224.167 201.5,223.5 Z"/></g>
<g><path style="opacity:0.376" fill="#c2c5ce" d="M 317.5,223.5 C 318.492,223.328 319.158,223.662 319.5,224.5C 318.673,225.439 318.006,225.105 317.5,223.5 Z"/></g>
<g><path style="opacity:0.03" fill="#e5e6e5" d="M 356.5,223.5 C 357.787,224.871 358.453,226.705 358.5,229C 358.333,230.833 358.167,232.667 358,234.5C 357.5,234 357,233.5 356.5,233C 357.138,229.929 357.138,226.763 356.5,223.5 Z"/></g>
<g><path style="opacity:0.682" fill="#7d859e" d="M 376.5,223.5 C 376.5,227.167 376.5,230.833 376.5,234.5C 375.167,230.833 375.167,227.167 376.5,223.5 Z"/></g>
<g><path style="opacity:0.026" fill="#e5e6e5" d="M 387.5,223.5 C 387.5,227.167 387.5,230.833 387.5,234.5C 386.761,234.631 386.094,234.464 385.5,234C 386.833,230.667 386.833,227.333 385.5,224C 386.094,223.536 386.761,223.369 387.5,223.5 Z"/></g>
<g><path style="opacity:0.394" fill="#878fa6" d="M 432.5,212.5 C 432.5,234.5 432.5,256.5 432.5,278.5C 431.751,277.469 431.085,276.302 430.5,275C 431.447,257.752 431.781,240.585 431.5,223.5C 431.5,222.5 431.5,221.5 431.5,220.5C 431.5,218.833 431.5,217.167 431.5,215.5C 431.5,214.833 431.5,214.167 431.5,213.5C 431.5,212.833 431.833,212.5 432.5,212.5 Z"/></g>
<g><path style="opacity:0.047" fill="#d3d5da" d="M 72.5,224.5 C 71.9941,226.105 71.3274,226.439 70.5,225.5C 70.8417,224.662 71.5084,224.328 72.5,224.5 Z"/></g>
<g><path style="opacity:0.036" fill="#e5e6e5" d="M 161.5,225.5 C 161.833,225.5 162.167,225.5 162.5,225.5C 162.649,226.552 162.483,227.552 162,228.5C 161.333,227.167 160.667,227.167 160,228.5C 159.536,227.906 159.369,227.239 159.5,226.5C 160.492,226.672 161.158,226.338 161.5,225.5 Z"/></g>
<g><path style="opacity:0.023" fill="#e5e6e5" d="M 183.5,225.5 C 183.541,229.243 182.874,229.41 181.5,226C 182.094,225.536 182.761,225.369 183.5,225.5 Z"/></g>
<g><path style="opacity:0.035" fill="#e5e6e5" d="M 77.5,226.5 C 78.1667,226.5 78.8333,226.5 79.5,226.5C 80.1667,226.5 80.5,226.833 80.5,227.5C 80.5,227.833 80.5,228.167 80.5,228.5C 78.9731,228.573 77.9731,227.906 77.5,226.5 Z"/></g>
<g><path style="opacity:0.042" fill="#e5e6e5" d="M 119.5,226.5 C 120.167,226.5 120.5,226.833 120.5,227.5C 120.5,227.833 120.5,228.167 120.5,228.5C 118.895,227.994 118.561,227.327 119.5,226.5 Z"/></g>
<g><path style="opacity:0.024" fill="#d3d5da" d="M 273.5,226.5 C 275.424,226.711 275.757,227.377 274.5,228.5C 274.167,227.833 273.833,227.167 273.5,226.5 Z"/></g>
<g><path style="opacity:0.051" fill="#c6c9d1" d="M 415.5,227.5 C 416.209,226.596 417.209,226.263 418.5,226.5C 418.631,227.239 418.464,227.906 418,228.5C 417.329,227.748 416.496,227.414 415.5,227.5 Z"/></g>
<g><path style="opacity:0.022" fill="#d3d5da" d="M 158.5,226.5 C 158.289,228.424 157.623,228.757 156.5,227.5C 157.167,227.167 157.833,226.833 158.5,226.5 Z"/></g>
<g><path style="opacity:0.029" fill="#d7d8dc" d="M 80.5,228.5 C 80.8333,228.5 81.1667,228.5 81.5,228.5C 82.1667,228.5 82.5,228.833 82.5,229.5C 81.0335,232.258 80.3668,231.925 80.5,228.5 Z"/></g>
<g><path style="opacity:0.024" fill="#d3d5da" d="M 120.5,228.5 C 120.833,228.5 121.167,228.5 121.5,228.5C 122.167,228.5 122.5,228.833 122.5,229.5C 121.075,231.031 120.409,230.698 120.5,228.5 Z"/></g>
<g><path style="opacity:0.064" fill="#d7d8dc" d="M 255.5,228.5 C 255.833,229.167 256.167,229.833 256.5,230.5C 255.833,230.5 255.5,230.833 255.5,231.5C 254.167,230.5 254.167,229.5 255.5,228.5 Z"/></g>
<g><path style="opacity:0.667" fill="#a8acbb" d="M 286.5,227.5 C 286.443,228.609 286.11,229.609 285.5,230.5C 285.167,230.5 284.833,230.5 284.5,230.5C 284.427,228.973 285.094,227.973 286.5,227.5 Z"/></g>
<g><path style="opacity:0.022" fill="#e5e6e5" d="M 275.5,232.5 C 274.833,232.5 274.5,232.167 274.5,231.5C 275.222,231.082 275.722,230.416 276,229.5C 276.74,230.749 276.573,231.749 275.5,232.5 Z"/></g>
<g><path style="opacity:0.047" fill="#e5e6e5" d="M 284.5,230.5 C 284.5,231.167 284.833,231.5 285.5,231.5C 285.5,232.167 285.167,232.5 284.5,232.5C 284.167,232.5 283.833,232.5 283.5,232.5C 283.328,231.508 283.662,230.842 284.5,230.5 Z"/></g>
<g><path style="opacity:0.043" fill="#e5e6e5" d="M 255.5,231.5 C 255.833,231.5 256.167,231.5 256.5,231.5C 257.167,231.5 257.5,231.833 257.5,232.5C 257.5,233.167 257.5,233.833 257.5,234.5C 255.952,234.179 255.285,233.179 255.5,231.5 Z"/></g>
<g><path style="opacity:0.016" fill="#e5e6e5" d="M 183.5,234.5 C 177.147,234.547 176.98,233.881 183,232.5C 183.464,233.094 183.631,233.761 183.5,234.5 Z"/></g>
<g><path style="opacity:0.043" fill="#e5e6e5" d="M 234.5,232.5 C 235.757,233.623 235.424,234.289 233.5,234.5C 233.833,233.833 234.167,233.167 234.5,232.5 Z"/></g>
<g><path style="opacity:0.042" fill="#e5e6e5" d="M 283.5,232.5 C 283.5,233.167 283.833,233.5 284.5,233.5C 284.5,234.167 284.167,234.5 283.5,234.5C 282.167,233.833 282.167,233.167 283.5,232.5 Z"/></g>
<g><path style="opacity:0.033" fill="#e5e6e5" d="M 42.5,234.5 C 43.6408,237.64 43.8075,240.973 43,244.5C 42.5017,241.183 42.335,237.85 42.5,234.5 Z"/></g>
<g><path style="opacity:0.02" fill="#e5e6e5" d="M 62.5,234.5 C 63.8333,235.167 63.8333,235.167 62.5,234.5 Z"/></g>
<g><path style="opacity:0.038" fill="#dcdddf" d="M 83.5,232.5 C 84.404,233.209 84.7373,234.209 84.5,235.5C 83.6805,238.305 83.1805,241.305 83,244.5C 82.6667,244.167 82.3333,243.833 82,243.5C 81.4127,239.69 81.9127,236.023 83.5,232.5 Z"/></g>
<g><path style="opacity:0.012" fill="#e5e6e5" d="M 102.5,234.5 C 103.833,235.167 103.833,235.167 102.5,234.5 Z"/></g>
<g><path style="opacity:0.039" fill="#dedfe1" d="M 123.5,234.5 C 123.343,235.873 123.51,237.207 124,238.5C 124.464,237.906 124.631,237.239 124.5,236.5C 125.451,237.919 125.784,239.585 125.5,241.5C 124.167,242.167 124.167,242.833 125.5,243.5C 125.5,243.833 125.5,244.167 125.5,244.5C 124.351,244.209 123.684,243.376 123.5,242C 122.434,239.329 122.434,236.829 123.5,234.5 Z"/></g>
<g><path style="opacity:0.028" fill="#dedfe1" d="M 172.5,236.5 C 171.167,236.833 169.833,237.167 168.5,237.5C 168.418,235.748 169.251,234.748 171,234.5C 172.03,234.836 172.53,235.503 172.5,236.5 Z"/></g>
<g><path style="opacity:0.01" fill="#e5e6e5" d="M 205.5,234.5 C 206.525,234.897 206.692,235.563 206,236.5C 205.536,235.906 205.369,235.239 205.5,234.5 Z"/></g>
<g><path style="opacity:0.031" fill="#d9dbde" d="M 329.5,234.5 C 330.338,234.842 330.672,235.508 330.5,236.5C 329.883,236.611 329.383,236.944 329,237.5C 328.26,236.251 328.427,235.251 329.5,234.5 Z"/></g>
<g><path style="opacity:0.035" fill="#e5e6e5" d="M 348.5,234.5 C 349.201,237.563 349.868,240.73 350.5,244C 350.167,244.167 349.833,244.333 349.5,244.5C 348.513,241.232 348.18,237.898 348.5,234.5 Z"/></g>
<g><path style="opacity:0.024" fill="#e5e6e5" d="M 407.5,234.5 C 408.525,234.897 408.692,235.563 408,236.5C 407.536,235.906 407.369,235.239 407.5,234.5 Z"/></g>
<g><path style="opacity:0.039" fill="#dedfe1" d="M 167.5,237.5 C 167.5,238.167 167.167,238.5 166.5,238.5C 165.833,237.167 165.167,237.167 164.5,238.5C 164.5,239.167 164.167,239.5 163.5,239.5C 163.196,238.85 162.863,238.183 162.5,237.5C 164.299,236.212 165.965,236.212 167.5,237.5 Z"/></g>
<g><path style="opacity:0.027" fill="#dcdddf" d="M 233.5,234.5 C 233.995,236.452 234.328,238.452 234.5,240.5C 234.415,242.333 233.748,243.666 232.5,244.5C 232.187,240.958 232.521,237.625 233.5,234.5 Z"/></g>
<g><path style="opacity:0.388" fill="#a0a7b8" d="M 101.5,236.5 C 101.184,250.549 101.517,264.549 102.5,278.5C 102.03,279.463 101.363,279.463 100.5,278.5C 100.171,264.323 100.504,250.323 101.5,236.5 Z"/></g>
<g><path style="opacity:0.019" fill="#e5e6e5" d="M 142.5,240.5 C 143.598,241.601 143.765,242.934 143,244.5C 142.51,243.207 142.343,241.873 142.5,240.5 Z"/></g>
<g><path style="opacity:0.025" fill="#e5e6e5" d="M 205.5,240.5 C 206.598,241.601 206.765,242.934 206,244.5C 205.51,243.207 205.343,241.873 205.5,240.5 Z"/></g>
<g><path style="opacity:0.378" fill="#a6acbc" d="M 300.5,240.5 C 301.121,244.195 301.454,247.862 301.5,251.5C 301.167,251.5 300.833,251.5 300.5,251.5C 299.285,247.699 299.285,244.033 300.5,240.5 Z"/></g>
<g><path style="opacity:0.688" fill="#737c97" d="M 376.5,243.5 C 376.599,248.181 376.599,252.847 376.5,257.5C 375.167,252.833 375.167,248.167 376.5,243.5 Z"/></g>
<g><path style="opacity:0.098" fill="#e5e6e5" d="M 154.5,244.5 C 154.167,245.167 153.833,245.833 153.5,246.5C 152.243,245.377 152.576,244.711 154.5,244.5 Z"/></g>
<g><path style="opacity:0.017" fill="#e5e6e5" d="M 215.5,244.5 C 215.5,247.833 215.5,251.167 215.5,254.5C 214.683,252.169 214.016,249.669 213.5,247C 213.639,245.699 214.305,244.866 215.5,244.5 Z"/></g>
<g><path style="opacity:0.038" fill="#dedfe1" d="M 283.5,241.5 C 283.5,244.833 283.5,248.167 283.5,251.5C 282.842,252.398 282.176,253.398 281.5,254.5C 279.831,247.981 278.331,247.981 277,254.5C 276.502,251.183 276.335,247.85 276.5,244.5C 278.766,244.141 280.599,244.808 282,246.5C 282.198,244.618 282.698,242.952 283.5,241.5 Z"/></g>
<g><path style="opacity:0.056" fill="#e5e6e5" d="M 356.5,244.5 C 357.777,245.694 358.444,247.36 358.5,249.5C 358.167,251.167 357.833,252.833 357.5,254.5C 356.513,251.232 356.18,247.898 356.5,244.5 Z"/></g>
<g><path style="opacity:0.03" fill="#e5e6e5" d="M 387.5,244.5 C 387.5,247.833 387.5,251.167 387.5,254.5C 386.761,254.631 386.094,254.464 385.5,254C 386.795,251.199 386.795,248.366 385.5,245.5C 385.957,244.702 386.624,244.369 387.5,244.5 Z"/></g>
<g><path style="opacity:0.031" fill="#e5e6e5" d="M 405.5,244.5 C 406.641,247.64 406.808,250.973 406,254.5C 405.502,251.183 405.335,247.85 405.5,244.5 Z"/></g>
<g><path style="opacity:0.035" fill="#ced0d6" d="M 181.5,246.5 C 180.359,247.339 179.026,248.006 177.5,248.5C 176.893,248.376 176.56,248.043 176.5,247.5C 178.042,246.699 179.708,246.366 181.5,246.5 Z"/></g>
<g><path style="opacity:0.033" fill="#d9dbde" d="M 301.5,251.5 C 302.686,252.705 302.686,254.039 301.5,255.5C 300.662,255.158 300.328,254.492 300.5,253.5C 301.338,253.158 301.672,252.492 301.5,251.5 Z"/></g>
<g><path style="opacity:0.027" fill="#e5e6e5" d="M 42.5,254.5 C 43.6408,257.64 43.8075,260.973 43,264.5C 42.5017,261.183 42.335,257.85 42.5,254.5 Z"/></g>
<g><path style="opacity:0.024" fill="#e5e6e5" d="M 61.5,254.5 C 62.8333,255.167 62.8333,255.167 61.5,254.5 Z"/></g>
<g><path style="opacity:0.037" fill="#e5e6e5" d="M 82.5,254.5 C 83.6408,257.64 83.8075,260.973 83,264.5C 81.23,261.311 81.0634,257.978 82.5,254.5 Z"/></g>
<g><path style="opacity:0.046" fill="#e5e6e5" d="M 125.5,254.5 C 125.5,255.167 125.5,255.833 125.5,256.5C 124.167,257.167 124.167,257.833 125.5,258.5C 125.5,259.167 125.5,259.833 125.5,260.5C 124.167,261.167 124.167,261.833 125.5,262.5C 125.5,262.833 125.5,263.167 125.5,263.5C 124.883,263.611 124.383,263.944 124,264.5C 122.957,261.243 122.457,257.91 122.5,254.5C 123.5,254.5 124.5,254.5 125.5,254.5 Z"/></g>
<g><path style="opacity:0.038" fill="#e4e4e5" d="M 149.5,257.5 C 149.5,259.167 149.5,260.833 149.5,262.5C 147.544,264.148 145.211,264.815 142.5,264.5C 142.5,261.167 142.5,257.833 142.5,254.5C 144.5,254.5 146.5,254.5 148.5,254.5C 148.263,255.791 148.596,256.791 149.5,257.5 Z M 144.5,258.5 C 148.559,261.189 148.226,262.855 143.5,263.5C 143.629,261.784 143.962,260.117 144.5,258.5 Z"/></g>
<g><path style="opacity:0.032" fill="#dddee0" d="M 166.5,254.5 C 167.239,254.369 167.906,254.536 168.5,255C 167.901,256.622 167.234,258.122 166.5,259.5C 166.672,258.508 166.338,257.842 165.5,257.5C 165.557,256.391 165.89,255.391 166.5,254.5 Z"/></g>
<g><path style="opacity:0.354" fill="#c2c6cf" d="M 188.5,247.5 C 188.813,251.042 188.479,254.375 187.5,257.5C 186.885,254.121 187.219,250.788 188.5,247.5 Z"/></g>
<g><path style="opacity:0.02" fill="#e5e6e5" d="M 205.5,254.5 C 206.622,256.288 206.789,258.288 206,260.5C 205.505,258.527 205.338,256.527 205.5,254.5 Z"/></g>
<g><path style="opacity:0.036" fill="#e5e6e5" d="M 232.5,254.5 C 233.777,255.694 234.444,257.36 234.5,259.5C 234.444,261.64 233.777,263.306 232.5,264.5C 232.5,261.167 232.5,257.833 232.5,254.5 Z"/></g>
<g><path style="opacity:0.055" fill="#e0e1e2" d="M 330.5,253.5 C 330.443,254.609 330.11,255.609 329.5,256.5C 328.833,256.5 328.5,256.833 328.5,257.5C 327.662,257.842 327.328,258.508 327.5,259.5C 326.662,259.842 326.328,260.508 326.5,261.5C 326.167,261.5 325.833,261.5 325.5,261.5C 324.731,257.275 326.398,254.609 330.5,253.5 Z"/></g>
<g><path style="opacity:0.039" fill="#e5e6e5" d="M 348.5,254.5 C 349.641,257.64 349.808,260.973 349,264.5C 348.502,261.183 348.335,257.85 348.5,254.5 Z"/></g>
<g><path style="opacity:0.025" fill="#e5e6e5" d="M 187.5,257.5 C 187.5,258.167 187.5,258.833 187.5,259.5C 186.833,259.5 186.5,259.833 186.5,260.5C 185.662,260.842 185.328,261.508 185.5,262.5C 184.833,262.5 184.5,262.833 184.5,263.5C 183.431,260.804 184.431,258.804 187.5,257.5 Z"/></g>
<g><path style="opacity:0.031" fill="#e5e6e5" d="M 307.5,262.5 C 306.508,262.672 305.842,262.338 305.5,261.5C 306.062,259.335 306.729,259.668 307.5,262.5 Z"/></g>
<g><path style="opacity:0.02" fill="#e5e6e5" d="M 205.5,261.5 C 206.573,262.251 206.74,263.251 206,264.5C 205.517,263.552 205.351,262.552 205.5,261.5 Z"/></g>
<g><path style="opacity:0.055" fill="#e5e6e5" d="M 181.5,265.5 C 180.833,265.5 180.5,265.833 180.5,266.5C 179.833,266.833 179.167,267.167 178.5,267.5C 177.737,266.732 176.737,266.232 175.5,266C 177,265.5 178.5,265 180,264.5C 180.765,264.57 181.265,264.903 181.5,265.5 Z"/></g>
<g><path style="opacity:0.013" fill="#e5e6e5" d="M 276.5,264.5 C 277.573,265.251 277.74,266.251 277,267.5C 276.517,266.552 276.351,265.552 276.5,264.5 Z"/></g>
<g><path style="opacity:0.046" fill="#e5e6e5" d="M 356.5,264.5 C 357.777,265.694 358.444,267.36 358.5,269.5C 358.167,271.167 357.833,272.833 357.5,274.5C 356.513,271.232 356.18,267.898 356.5,264.5 Z"/></g>
<g><path style="opacity:0.684" fill="#7d859e" d="M 376.5,264.5 C 376.578,268.066 376.578,271.732 376.5,275.5C 375.167,271.833 375.167,268.167 376.5,264.5 Z"/></g>
<g><path style="opacity:0.022" fill="#e5e6e5" d="M 387.5,264.5 C 387.5,267.833 387.5,271.167 387.5,274.5C 386.761,274.631 386.094,274.464 385.5,274C 386.833,271 386.833,268 385.5,265C 386.094,264.536 386.761,264.369 387.5,264.5 Z"/></g>
<g><path style="opacity:0.027" fill="#e5e6e5" d="M 405.5,264.5 C 406.201,267.563 406.868,270.73 407.5,274C 407.167,274.167 406.833,274.333 406.5,274.5C 405.513,271.232 405.18,267.898 405.5,264.5 Z"/></g>
<g><path style="opacity:0.016" fill="#e5e6e5" d="M 276.5,272.5 C 277.525,272.897 277.692,273.563 277,274.5C 276.536,273.906 276.369,273.239 276.5,272.5 Z"/></g>
<g><path style="opacity:0.052" fill="#d9dbde" d="M 293.5,273.5 C 294.71,273.932 295.71,274.599 296.5,275.5C 294.632,276.674 293.632,276.007 293.5,273.5 Z"/></g>
<g><path style="opacity:0.026" fill="#e5e6e5" d="M 42.5,274.5 C 43.5983,275.601 43.765,276.934 43,278.5C 42.51,277.207 42.3433,275.873 42.5,274.5 Z"/></g>
<g><path style="opacity:0.032" fill="#e5e6e5" d="M 60.5,278.5 C 60.5,277.5 60.5,276.5 60.5,275.5C 61.6499,274.15 62.3166,274.316 62.5,276C 61.9221,277.811 61.4221,279.645 61,281.5C 60.5172,280.552 60.3505,279.552 60.5,278.5 Z"/></g>
<g><path style="opacity:0.03" fill="#e5e6e5" d="M 125.5,274.5 C 125.5,274.833 125.5,275.167 125.5,275.5C 124.167,275.833 124.167,276.167 125.5,276.5C 125.5,277.167 125.5,277.833 125.5,278.5C 122.978,276.998 122.978,275.665 125.5,274.5 Z"/></g>
<g><path style="opacity:0.014" fill="#e5e6e5" d="M 142.5,274.5 C 143.525,274.897 143.692,275.563 143,276.5C 142.536,275.906 142.369,275.239 142.5,274.5 Z"/></g>
<g><path style="opacity:0.036" fill="#ccced4" d="M 186.5,273.5 C 187.209,274.404 188.209,274.737 189.5,274.5C 190.434,275.568 190.768,276.901 190.5,278.5C 188.886,276.925 186.886,276.259 184.5,276.5C 184.5,276.167 184.5,275.833 184.5,275.5C 184.833,274.5 185.5,273.833 186.5,273.5 Z"/></g>
<g><path style="opacity:0.029" fill="#e5e6e5" d="M 206.5,274.5 C 207.573,275.251 207.74,276.251 207,277.5C 206.517,276.552 206.351,275.552 206.5,274.5 Z"/></g>
<g><path style="opacity:0.028" fill="#e5e6e5" d="M 232.5,274.5 C 233.693,274.97 234.36,275.97 234.5,277.5C 234.333,278.5 234.167,279.5 234,280.5C 230.397,279.865 226.897,279.198 223.5,278.5C 226.5,278.5 229.5,278.5 232.5,278.5C 232.5,277.167 232.5,275.833 232.5,274.5 Z"/></g>
<g><path style="opacity:0.357" fill="#c2c5ce" d="M 326.5,275.5 C 326.5,275.167 326.5,274.833 326.5,274.5C 326.833,274.5 327.167,274.5 327.5,274.5C 329.167,274.5 330.833,274.5 332.5,274.5C 333.434,275.568 333.768,276.901 333.5,278.5C 332.596,277.791 332.263,276.791 332.5,275.5C 330.5,275.5 328.5,275.5 326.5,275.5 Z"/></g>
<g><path style="opacity:0.025" fill="#e5e6e5" d="M 349.5,274.5 C 350.525,274.897 350.692,275.563 350,276.5C 349.536,275.906 349.369,275.239 349.5,274.5 Z"/></g>
<g><path style="opacity:0.033" fill="#e5e6e5" d="M 448.5,274.5 C 449.376,274.369 450.043,274.702 450.5,275.5C 449.846,277.115 449.346,278.782 449,280.5C 448.536,279.906 448.369,279.239 448.5,278.5C 448.5,277.167 448.5,275.833 448.5,274.5 Z"/></g>
<g><path style="opacity:0.008" fill="#e5e6e5" d="M 82.5,275.5 C 83.525,275.897 83.6917,276.563 83,277.5C 82.5357,276.906 82.369,276.239 82.5,275.5 Z"/></g>
<g><path style="opacity:0.039" fill="#e5e6e5" d="M 183.5,276.5 C 183.833,276.5 184.167,276.5 184.5,276.5C 184.315,277.17 183.981,277.17 183.5,276.5 Z"/></g>
<g><path style="opacity:0.033" fill="#e5e6e5" d="M 366.5,278.5 C 369.833,278.5 373.167,278.5 376.5,278.5C 376.631,279.239 376.464,279.906 376,280.5C 373,279.167 370,279.167 367,280.5C 366.536,279.906 366.369,279.239 366.5,278.5 Z"/></g>
<g><path style="opacity:0.034" fill="#e5e6e5" d="M 387.5,278.5 C 390.833,278.5 394.167,278.5 397.5,278.5C 394.437,279.201 391.27,279.868 388,280.5C 387.536,279.906 387.369,279.239 387.5,278.5 Z"/></g>
<g><path style="opacity:0.037" fill="#e5e6e5" d="M 164.5,279.5 C 164.103,280.525 163.437,280.692 162.5,280C 163.094,279.536 163.761,279.369 164.5,279.5 Z"/></g>
<g><path style="opacity:0.022" fill="#e5e6e5" d="M 166.5,281.5 C 168.288,280.378 170.288,280.211 172.5,281C 170.527,281.495 168.527,281.662 166.5,281.5 Z"/></g>
<g><path style="opacity:0.013" fill="#e5e6e5" d="M 309.5,281.5 C 311.288,280.378 313.288,280.211 315.5,281C 313.527,281.495 311.527,281.662 309.5,281.5 Z"/></g>
</svg>
