<?xml version="1.0" encoding="UTF-8"?>
<!DOCTYPE svg PUBLIC "-//W3C//DTD SVG 1.1//EN" "http://www.w3.org/Graphics/SVG/1.1/DTD/svg11.dtd">
<svg xmlns="http://www.w3.org/2000/svg" version="1.1" width="666px" height="375px" style="shape-rendering:geometricPrecision; text-rendering:geometricPrecision; image-rendering:optimizeQuality; fill-rule:evenodd; clip-rule:evenodd" xmlns:xlink="http://www.w3.org/1999/xlink">
<g><path style="opacity:1" fill="#ee512f" d="M 73.5,92.5 C 71.4482,93.0527 71.1148,94.0527 72.5,95.5C 72.5,96.8333 72.5,98.1667 72.5,99.5C 72.8333,100.5 73.5,101.167 74.5,101.5C 76.1789,101.892 77.8455,102.392 79.5,103C 141.528,103.178 203.528,103.678 265.5,104.5C 266.391,105.11 267.391,105.443 268.5,105.5C 272.049,106.723 275.049,108.723 277.5,111.5C 277.427,113.027 278.094,114.027 279.5,114.5C 282.309,118.097 283.643,122.264 283.5,127C 283.333,169.831 283.167,212.664 283,255.5C 280.211,264.323 274.378,270.157 265.5,273C 260,273.167 254.5,273.333 249,273.5C 204.667,273.48 160.334,273.48 116,273.5C 100.832,273.046 85.6652,272.546 70.5,272C 64.9173,270.757 60.7506,267.59 58,262.5C 56.2834,258.457 55.1167,254.29 54.5,250C 54.4344,197.866 54.7677,145.366 55.5,92.5C 56.9063,92.0269 57.573,91.0269 57.5,89.5C 58.343,87.8267 59.6763,86.66 61.5,86C 79.2496,84.2494 96.9163,82.0828 114.5,79.5C 117.902,79.6576 121.236,79.3242 124.5,78.5C 138.226,76.202 152.226,74.5354 166.5,73.5C 170.04,73.2474 173.373,72.5808 176.5,71.5C 182.051,71.473 187.384,70.8063 192.5,69.5C 204.224,68.4694 216.057,66.8027 228,64.5C 238.922,64.9685 243.088,70.6351 240.5,81.5C 240.458,85.5955 239.792,89.4288 238.5,93C 183.177,93.1903 128.177,93.0236 73.5,92.5 Z M 188.5,150.5 C 185.9,148.618 183.4,146.618 181,144.5C 174.482,144.196 168.149,144.196 162,144.5C 156.361,147.472 152.028,151.806 149,157.5C 148.503,160.146 148.336,162.813 148.5,165.5C 150.5,167.833 152.5,170.167 154.5,172.5C 157.378,174.105 160.378,175.439 163.5,176.5C 162.321,178.409 162.654,178.742 164.5,177.5C 173.246,179.211 181.246,182.545 188.5,187.5C 187.453,188.078 187.62,188.744 189,189.5C 189.399,189.272 189.565,188.938 189.5,188.5C 189.833,188.5 190.167,188.5 190.5,188.5C 189.735,191.096 189.401,193.763 189.5,196.5C 187.833,196.5 186.167,196.5 184.5,196.5C 183.778,196.082 183.278,195.416 183,194.5C 182.667,194.833 182.333,195.167 182,195.5C 180.89,193.963 179.39,193.297 177.5,193.5C 177.918,192.778 178.584,192.278 179.5,192C 177.934,191.235 176.601,191.402 175.5,192.5C 174.29,192.068 173.29,191.401 172.5,190.5C 171.167,190.5 169.833,190.5 168.5,190.5C 168.611,189.883 168.944,189.383 169.5,189C 168.251,188.26 167.251,188.427 166.5,189.5C 164.299,188.434 161.965,187.767 159.5,187.5C 159.332,184.949 158.332,184.282 156.5,185.5C 154.847,185.34 153.514,184.674 152.5,183.5C 144.494,180.179 139.827,174.179 138.5,165.5C 139.641,163.451 139.641,161.451 138.5,159.5C 139.249,151.996 142.583,145.996 148.5,141.5C 164.773,130.744 180.273,131.077 195,142.5C 198.406,145.818 198.24,148.985 194.5,152C 192.011,152.941 190.011,152.441 188.5,150.5 Z M 189.5,196.5 C 190.75,196.577 191.583,197.244 192,198.5C 193.016,197.366 193.683,197.699 194,199.5C 195.264,197.393 197.097,196.393 199.5,196.5C 201.63,200.3 203.297,204.3 204.5,208.5C 205.415,213.319 205.415,217.986 204.5,222.5C 202.952,222.821 202.285,223.821 202.5,225.5C 201.525,227.795 200.192,229.795 198.5,231.5C 197.167,231.5 196.5,232.167 196.5,233.5C 195.5,234.167 194.5,234.833 193.5,235.5C 189.062,239.62 183.729,241.62 177.5,241.5C 175.043,241.208 172.376,241.208 169.5,241.5C 166.167,241.167 162.833,240.833 159.5,240.5C 159.289,238.576 158.623,238.243 157.5,239.5C 152.52,237.677 147.853,235.343 143.5,232.5C 138.236,230.636 136.069,226.969 137,221.5C 138.242,220.128 139.742,219.128 141.5,218.5C 144.492,220.171 147.159,222.171 149.5,224.5C 150.71,224.932 151.71,225.599 152.5,226.5C 155.393,227.18 157.893,228.513 160,230.5C 160.561,229.978 161.228,229.645 162,229.5C 167.038,231.121 172.205,231.787 177.5,231.5C 178.281,233.628 179.281,233.795 180.5,232C 179.944,231.617 179.611,231.117 179.5,230.5C 183.42,229.873 186.753,228.207 189.5,225.5C 190.833,225.5 191.5,224.833 191.5,223.5C 192.692,221.887 193.692,220.22 194.5,218.5C 195.04,214.897 194.707,211.23 193.5,207.5C 194.742,205.654 194.409,205.321 192.5,206.5C 192.346,204.03 191.346,202.03 189.5,200.5C 189.5,199.167 188.833,198.5 187.5,198.5C 187.167,198.5 186.833,198.5 186.5,198.5C 187.5,197.833 188.5,197.167 189.5,196.5 Z"/></g>
<g><path style="opacity:0.998" fill="#f06240" d="M 356.5,106.5 C 356.427,108.027 357.094,109.027 358.5,109.5C 360.25,110.659 361.25,112.326 361.5,114.5C 362.105,118.315 362.105,121.982 361.5,125.5C 361.25,127.674 360.25,129.341 358.5,130.5C 357.5,130.833 356.833,131.5 356.5,132.5C 351.949,136.694 346.449,138.694 340,138.5C 333.374,139.021 327.207,137.354 321.5,133.5C 321.167,132.5 320.5,131.833 319.5,131.5C 314.586,128.518 314.42,125.518 319,122.5C 322.923,125.917 327.423,128.25 332.5,129.5C 334.607,130.468 336.941,130.802 339.5,130.5C 341.806,130.007 344.139,129.674 346.5,129.5C 348.38,129.771 349.713,129.104 350.5,127.5C 354.972,121.107 354.305,115.274 348.5,110C 345.107,108.38 341.774,106.88 338.5,105.5C 336.786,104.262 334.786,103.595 332.5,103.5C 322.704,102.203 317.037,96.7034 315.5,87C 315.701,84.8886 316.367,83.0552 317.5,81.5C 318.674,80.4863 319.34,79.153 319.5,77.5C 319.932,76.2905 320.599,75.2905 321.5,74.5C 323.027,74.573 324.027,73.9063 324.5,72.5C 326.027,72.573 327.027,71.9063 327.5,70.5C 330.142,69.1936 332.975,68.1936 336,67.5C 340.471,68.2591 344.971,69.0924 349.5,70C 353.106,71.2736 355.773,73.607 357.5,77C 356.695,78.9717 355.361,80.4717 353.5,81.5C 344.901,73.9853 336.068,73.6519 327,80.5C 326.069,82.4595 325.236,84.4595 324.5,86.5C 326.283,91.2371 329.616,94.4038 334.5,96C 338.773,97.5354 343.106,98.8688 347.5,100C 350.961,101.643 353.961,103.81 356.5,106.5 Z"/></g>
<g><path style="opacity:0.998" fill="#f05d3a" d="M 374.5,69.5 C 374.5,79.5 374.5,89.5 374.5,99.5C 375.791,99.7373 376.791,99.404 377.5,98.5C 379.956,96.1324 382.956,95.1324 386.5,95.5C 390.179,95.7244 393.846,96.0578 397.5,96.5C 402.05,98.0275 405.217,101.027 407,105.5C 407.667,114.5 407.667,123.5 407,132.5C 407.112,138.536 404.779,139.87 400,136.5C 399.667,136.833 399.333,137.167 399,137.5C 399.122,128.312 399.289,119.312 399.5,110.5C 397.591,104.71 393.591,102.21 387.5,103C 382.712,103.891 378.712,106.058 375.5,109.5C 374.506,118.652 374.173,127.985 374.5,137.5C 373.005,139.345 371.338,139.678 369.5,138.5C 367.919,136.858 367.253,134.858 367.5,132.5C 367.5,121.5 367.5,110.5 367.5,99.5C 367.193,89.4176 367.526,79.4176 368.5,69.5C 370.5,66.8333 372.5,66.8333 374.5,69.5 Z"/></g>
<g><path style="opacity:0.048" fill="#e0d3d0" d="M 192.5,69.5 C 187.384,70.8063 182.051,71.473 176.5,71.5C 181.598,70.0427 186.931,69.376 192.5,69.5 Z"/></g>
<g><path style="opacity:0.085" fill="#dadbda" d="M 368.5,69.5 C 367.526,79.4176 367.193,89.4176 367.5,99.5C 365.59,91.0621 365.09,82.3954 366,73.5C 366.122,71.563 366.955,70.2297 368.5,69.5 Z"/></g>
<g><path style="opacity:0.045" fill="#e4c9c3" d="M 176.5,71.5 C 173.373,72.5808 170.04,73.2474 166.5,73.5C 166.918,72.7784 167.584,72.2784 168.5,72C 171.146,71.5026 173.813,71.3359 176.5,71.5 Z"/></g>
<g><path style="opacity:0.761" fill="#ebad9e" d="M 327.5,70.5 C 327.027,71.9063 326.027,72.573 324.5,72.5C 324.973,71.0937 325.973,70.427 327.5,70.5 Z"/></g>
<g><path style="opacity:0.78" fill="#ef927d" d="M 374.5,69.5 C 375.478,72.8026 376.145,76.3026 376.5,80C 375.683,85.7033 375.35,91.37 375.5,97C 375.836,98.0299 376.503,98.5299 377.5,98.5C 376.791,99.404 375.791,99.7373 374.5,99.5C 374.5,89.5 374.5,79.5 374.5,69.5 Z"/></g>
<g><path style="opacity:0.745" fill="#ebad9e" d="M 324.5,72.5 C 324.027,73.9063 323.027,74.573 321.5,74.5C 321.973,73.0937 322.973,72.427 324.5,72.5 Z"/></g>
<g><path style="opacity:0.761" fill="#e9b5a9" d="M 124.5,78.5 C 121.236,79.3242 117.902,79.6576 114.5,79.5C 117.171,78.7021 120.004,78.0354 123,77.5C 123.765,77.5699 124.265,77.9033 124.5,78.5 Z"/></g>
<g><path style="opacity:0.745" fill="#ebaa9a" d="M 319.5,77.5 C 319.34,79.153 318.674,80.4863 317.5,81.5C 317.229,79.6203 317.896,78.287 319.5,77.5 Z"/></g>
<g><path style="opacity:0.749" fill="#ebad9e" d="M 57.5,89.5 C 57.573,91.0269 56.9063,92.0269 55.5,92.5C 55.427,90.9731 56.0937,89.9731 57.5,89.5 Z"/></g>
<g><path style="opacity:0.037" fill="#f4ebe9" d="M 73.5,92.5 C 72.8902,93.391 72.5569,94.391 72.5,95.5C 71.1148,94.0527 71.4482,93.0527 73.5,92.5 Z"/></g>
<g><path style="opacity:0.025" fill="#ded5d4" d="M 386.5,95.5 C 390.265,94.226 393.931,94.5593 397.5,96.5C 393.846,96.0578 390.179,95.7244 386.5,95.5 Z"/></g>
<g><path style="opacity:0.046" fill="#ddd6d4" d="M 432.5,96.5 C 433.793,95.8418 435.293,95.5085 437,95.5C 439.821,95.4078 442.321,96.0744 444.5,97.5C 440.534,96.8379 436.534,96.5045 432.5,96.5 Z"/></g>
<g><path style="opacity:0.999" fill="#ef5c3a" d="M 473.5,97.5 C 473.338,99.5273 473.505,101.527 474,103.5C 475.397,101.93 476.897,100.596 478.5,99.5C 496.851,91.8416 508.184,97.6749 512.5,117C 510.488,133.014 501.488,140.014 485.5,138C 481.637,136.819 478.137,134.986 475,132.5C 474.667,141.167 474.333,149.833 474,158.5C 472.13,161.882 469.964,162.216 467.5,159.5C 467.5,138.5 467.5,117.5 467.5,96.5C 470.088,93.5583 472.088,93.8917 473.5,97.5 Z M 491.5,104.5 C 502.759,107.692 505.926,114.692 501,125.5C 494.265,130.546 487.432,130.713 480.5,126C 475.83,118.507 476.83,112.007 483.5,106.5C 486.167,105.833 488.833,105.167 491.5,104.5 Z"/></g>
<g><path style="opacity:0.048" fill="#ded6d5" d="M 585.5,96.5 C 588.64,95.3592 591.973,95.1925 595.5,96C 597.32,96.2004 598.653,97.0337 599.5,98.5C 594.993,96.8874 590.327,96.2207 585.5,96.5 Z"/></g>
<g><path style="opacity:0.998" fill="#f0613f" d="M 432.5,96.5 C 436.534,96.5045 440.534,96.8379 444.5,97.5C 453.37,101.063 458.037,107.73 458.5,117.5C 457.979,127.184 453.313,134.017 444.5,138C 432.137,140.573 422.637,136.406 416,125.5C 413.356,117.739 414.523,110.739 419.5,104.5C 421.5,103.167 423.167,101.5 424.5,99.5C 427.172,98.4986 429.838,97.4986 432.5,96.5 Z M 432.5,104.5 C 441.157,103.074 446.99,106.407 450,114.5C 450,125.5 444.5,130.666 433.5,130C 420.771,121.981 420.437,113.481 432.5,104.5 Z"/></g>
<g><path style="opacity:0.998" fill="#ef5b39" d="M 553.5,99.5 C 554.5,101.167 555.833,102.5 557.5,103.5C 562.413,108.375 563.413,113.875 560.5,120C 555.511,120.499 550.511,120.666 545.5,120.5C 541.167,120.5 536.833,120.5 532.5,120.5C 531.167,120.5 529.833,120.5 528.5,120.5C 529.347,126.119 532.68,129.286 538.5,130C 543.262,130.477 547.929,129.977 552.5,128.5C 554.435,127.85 556.435,127.517 558.5,127.5C 558.833,128.5 559.5,129.167 560.5,129.5C 561.097,129.735 561.43,130.235 561.5,131C 553.45,138.173 544.117,140.34 533.5,137.5C 532.486,136.326 531.153,135.66 529.5,135.5C 527.983,135.489 526.816,134.823 526,133.5C 519.473,124.315 518.807,114.648 524,104.5C 525.73,102.598 527.563,100.931 529.5,99.5C 530.791,99.7373 531.791,99.404 532.5,98.5C 539.652,95.635 546.652,95.9683 553.5,99.5 Z M 538.5,104.5 C 541.881,104.46 545.214,104.793 548.5,105.5C 549.833,107.167 551.167,108.833 552.5,110.5C 549.742,111.818 546.576,112.485 543,112.5C 539.582,112.481 536.249,112.147 533,111.5C 532.536,112.094 532.369,112.761 532.5,113.5C 531.022,113.762 529.689,113.429 528.5,112.5C 529.612,110.581 530.946,108.914 532.5,107.5C 532.369,108.239 532.536,108.906 533,109.5C 534.095,108.307 534.928,106.973 535.5,105.5C 536.791,105.737 537.791,105.404 538.5,104.5 Z"/></g>
<g><path style="opacity:0.998" fill="#f05937" d="M 585.5,96.5 C 590.327,96.2207 594.993,96.8874 599.5,98.5C 602.195,98.933 604.362,100.266 606,102.5C 609.767,107.856 610.767,113.523 609,119.5C 608.329,120.252 607.496,120.586 606.5,120.5C 603.833,120.5 601.167,120.5 598.5,120.5C 592.025,120.596 585.525,120.596 579,120.5C 577.941,120.63 577.108,121.13 576.5,122C 577.833,126 580.5,128.667 584.5,130C 589.22,130.717 593.886,130.55 598.5,129.5C 601.308,128.071 604.308,127.405 607.5,127.5C 609.099,128.799 609.599,130.465 609,132.5C 605.823,134.837 602.323,136.504 598.5,137.5C 593.167,138.833 587.833,138.833 582.5,137.5C 579.911,137.539 577.911,136.539 576.5,134.5C 575.833,133.167 574.833,132.167 573.5,131.5C 568.332,124.604 567.165,116.937 570,108.5C 573.259,101.962 578.426,97.9624 585.5,96.5 Z M 598.5,106.5 C 598.5,108.833 598.5,111.167 598.5,113.5C 591.159,113.666 583.826,113.5 576.5,113C 581.724,103.55 589.057,101.383 598.5,106.5 Z"/></g>
<g><path style="opacity:0.773" fill="#ebad9e" d="M 532.5,98.5 C 531.791,99.404 530.791,99.7373 529.5,99.5C 530.172,98.7326 531.005,98.0659 532,97.5C 532.399,97.7284 532.565,98.0618 532.5,98.5 Z"/></g>
<g><path style="opacity:0.078" fill="#e1d0cd" d="M 72.5,99.5 C 73.8333,99.5 74.5,100.167 74.5,101.5C 73.5,101.167 72.8333,100.5 72.5,99.5 Z"/></g>
<g><path style="opacity:0.829" fill="#ee9987" d="M 467.5,96.5 C 467.5,117.5 467.5,138.5 467.5,159.5C 465.885,139.683 465.385,119.683 466,99.5C 466.232,98.2625 466.732,97.2625 467.5,96.5 Z"/></g>
<g><path style="opacity:0.13" fill="#e5c1b9" d="M 473.5,97.5 C 474.779,98.968 476.446,99.6347 478.5,99.5C 476.897,100.596 475.397,101.93 474,103.5C 473.505,101.527 473.338,99.5273 473.5,97.5 Z"/></g>
<g><path style="opacity:0.1" fill="#e3ceca" d="M 553.5,99.5 C 555.833,99.8333 557.167,101.167 557.5,103.5C 555.833,102.5 554.5,101.167 553.5,99.5 Z"/></g>
<g><path style="opacity:0.045" fill="#e0cdc9" d="M 265.5,104.5 C 266.779,103.285 267.779,103.618 268.5,105.5C 267.391,105.443 266.391,105.11 265.5,104.5 Z"/></g>
<g><path style="opacity:0.31" fill="#e8bfb7" d="M 424.5,99.5 C 423.167,101.5 421.5,103.167 419.5,104.5C 420.167,101.833 421.833,100.167 424.5,99.5 Z"/></g>
<g><path style="opacity:0.04" fill="#ddd5d3" d="M 538.5,104.5 C 539.622,103.844 540.955,103.511 542.5,103.5C 544.883,103.361 546.883,104.028 548.5,105.5C 545.214,104.793 541.881,104.46 538.5,104.5 Z"/></g>
<g><path style="opacity:0.025" fill="#dfd5d3" d="M 332.5,103.5 C 334.786,103.595 336.786,104.262 338.5,105.5C 336.102,105.741 334.102,105.074 332.5,103.5 Z"/></g>
<g><path style="opacity:0.033" fill="#e3c7c2" d="M 491.5,104.5 C 488.833,105.167 486.167,105.833 483.5,106.5C 485.224,104.838 487.391,103.838 490,103.5C 490.765,103.57 491.265,103.903 491.5,104.5 Z"/></g>
<g><path style="opacity:0.066" fill="#dadbda" d="M 535.5,105.5 C 534.928,106.973 534.095,108.307 533,109.5C 532.536,108.906 532.369,108.239 532.5,107.5C 532.973,106.094 533.973,105.427 535.5,105.5 Z"/></g>
<g><path style="opacity:0.056" fill="#dfd4d2" d="M 598.5,106.5 C 600.398,108.25 601.731,110.416 602.5,113C 601.207,113.49 599.873,113.657 598.5,113.5C 598.5,111.167 598.5,108.833 598.5,106.5 Z"/></g>
<g><path style="opacity:0.322" fill="#ecb1a4" d="M 356.5,106.5 C 357.906,106.973 358.573,107.973 358.5,109.5C 357.094,109.027 356.427,108.027 356.5,106.5 Z"/></g>
<g><path style="opacity:0.573" fill="#ec9c8d" d="M 375.5,109.5 C 375.198,117.556 375.531,125.556 376.5,133.5C 376.006,135.026 375.339,136.359 374.5,137.5C 374.173,127.985 374.506,118.652 375.5,109.5 Z"/></g>
<g><path style="opacity:0.031" fill="#dcd8d7" d="M 552.5,110.5 C 553.404,111.209 553.737,112.209 553.5,113.5C 546.5,113.5 539.5,113.5 532.5,113.5C 532.369,112.761 532.536,112.094 533,111.5C 536.249,112.147 539.582,112.481 543,112.5C 546.576,112.485 549.742,111.818 552.5,110.5 Z"/></g>
<g><path style="opacity:0.506" fill="#eba697" d="M 277.5,111.5 C 278.906,111.973 279.573,112.973 279.5,114.5C 278.094,114.027 277.427,113.027 277.5,111.5 Z"/></g>
<g><path style="opacity:0.021" fill="#e6c3bb" d="M 361.5,114.5 C 364.011,118.192 364.011,121.858 361.5,125.5C 362.105,121.982 362.105,118.315 361.5,114.5 Z"/></g>
<g><path style="opacity:0.026" fill="#dadbda" d="M 532.5,120.5 C 536.833,120.5 541.167,120.5 545.5,120.5C 541.635,121.224 537.635,121.891 533.5,122.5C 532.702,122.043 532.369,121.376 532.5,120.5 Z"/></g>
<g><path style="opacity:0.02" fill="#dbdbdb" d="M 598.5,120.5 C 601.167,120.5 603.833,120.5 606.5,120.5C 604.513,121.343 602.346,122.01 600,122.5C 598.97,122.164 598.47,121.497 598.5,120.5 Z"/></g>
<g><path style="opacity:0.012" fill="#dadbda" d="M 599.5,123.5 C 600.289,123.783 600.956,124.283 601.5,125C 600.184,125.528 599.517,125.028 599.5,123.5 Z"/></g>
<g><path style="opacity:0.029" fill="#ded4d2" d="M 558.5,127.5 C 556.435,127.517 554.435,127.85 552.5,128.5C 553.134,127.053 554.301,126.387 556,126.5C 557.07,126.528 557.903,126.861 558.5,127.5 Z"/></g>
<g><path style="opacity:0.058" fill="#e0d5d3" d="M 607.5,127.5 C 604.308,127.405 601.308,128.071 598.5,129.5C 598.577,128.25 599.244,127.417 600.5,127C 603.039,126.204 605.372,126.371 607.5,127.5 Z"/></g>
<g><path style="opacity:0.043" fill="#e1d0cd" d="M 558.5,127.5 C 559.833,127.5 560.5,128.167 560.5,129.5C 559.5,129.167 558.833,128.5 558.5,127.5 Z"/></g>
<g><path style="opacity:0.041" fill="#ddd4d2" d="M 350.5,127.5 C 349.713,129.104 348.38,129.771 346.5,129.5C 347.514,128.326 348.847,127.66 350.5,127.5 Z"/></g>
<g><path style="opacity:0.034" fill="#dfd2cf" d="M 339.5,130.5 C 336.941,130.802 334.607,130.468 332.5,129.5C 332.435,129.062 332.601,128.728 333,128.5C 335.277,129.117 337.444,129.784 339.5,130.5 Z"/></g>
<g><path style="opacity:0.049" fill="#dfd6d4" d="M 358.5,130.5 C 358.5,131.833 357.833,132.5 356.5,132.5C 356.833,131.5 357.5,130.833 358.5,130.5 Z"/></g>
<g><path style="opacity:0.051" fill="#dddcdc" d="M 319.5,131.5 C 320.5,131.833 321.167,132.5 321.5,133.5C 320.167,133.5 319.5,132.833 319.5,131.5 Z"/></g>
<g><path style="opacity:0.051" fill="#dadbda" d="M 367.5,132.5 C 367.253,134.858 367.919,136.858 369.5,138.5C 368.167,138.5 366.833,138.5 365.5,138.5C 365.259,136.102 365.926,134.102 367.5,132.5 Z"/></g>
<g><path style="opacity:0.043" fill="#e7bdb5" d="M 573.5,131.5 C 574.833,132.167 575.833,133.167 576.5,134.5C 574.5,134.5 573.5,133.5 573.5,131.5 Z"/></g>
<g><path style="opacity:0.037" fill="#e6c4bc" d="M 529.5,135.5 C 531.153,135.66 532.486,136.326 533.5,137.5C 531.62,137.771 530.287,137.104 529.5,135.5 Z"/></g>
<g><path style="opacity:0.023" fill="#e3c9c4" d="M 582.5,137.5 C 587.833,138.833 593.167,138.833 598.5,137.5C 593.151,140.096 587.817,140.096 582.5,137.5 Z"/></g>
<g><path style="opacity:0.818" fill="#ee9c8a" d="M 373.5,153.5 C 354.167,153.5 334.833,153.5 315.5,153.5C 315.5,157.833 315.5,162.167 315.5,166.5C 314.176,161.766 314.176,156.933 315.5,152C 335,151.894 354.333,152.394 373.5,153.5 Z"/></g>
<g><path style="opacity:0.999" fill="#ee5331" d="M 373.5,153.5 C 374.93,154.537 376.597,155.204 378.5,155.5C 387.476,157.651 394.81,162.318 400.5,169.5C 400.427,171.027 401.094,172.027 402.5,172.5C 410.397,182.776 412.23,194.11 408,206.5C 400.515,225.798 386.348,236.131 365.5,237.5C 355.167,237.5 344.833,237.5 334.5,237.5C 334.5,249.167 334.5,260.833 334.5,272.5C 327.969,273.778 321.469,273.778 315,272.5C 314.31,237.19 314.476,201.856 315.5,166.5C 315.5,162.167 315.5,157.833 315.5,153.5C 334.833,153.5 354.167,153.5 373.5,153.5 Z M 335.5,172.5 C 345.929,172.606 356.262,172.606 366.5,172.5C 379.17,176.313 386.004,184.646 387,197.5C 385.237,204.414 381.404,209.747 375.5,213.5C 373.847,213.66 372.514,214.326 371.5,215.5C 368.779,215.963 366.112,216.629 363.5,217.5C 354.167,217.5 344.833,217.5 335.5,217.5C 335.998,202.641 335.998,187.641 335.5,172.5 Z"/></g>
<g><path style="opacity:0.036" fill="#dfd1ce" d="M 373.5,153.5 C 375.698,153.12 377.365,153.787 378.5,155.5C 376.597,155.204 374.93,154.537 373.5,153.5 Z"/></g>
<g><path style="opacity:0.289" fill="#efcac3" d="M 138.5,159.5 C 139.641,161.451 139.641,163.451 138.5,165.5C 137.167,163.5 137.167,161.5 138.5,159.5 Z"/></g>
<g><path style="opacity:0.169" fill="#ebbbb1" d="M 400.5,169.5 C 401.906,169.973 402.573,170.973 402.5,172.5C 401.094,172.027 400.427,171.027 400.5,169.5 Z"/></g>
<g><path style="opacity:0.012" fill="#f1efee" d="M 163.5,176.5 C 164.167,176.5 164.5,176.833 164.5,177.5C 162.654,178.742 162.321,178.409 163.5,176.5 Z"/></g>
<g><path style="opacity:0.022" fill="#f3f0f0" d="M 156.5,185.5 C 158.332,184.282 159.332,184.949 159.5,187.5C 158.833,187.167 158.167,186.833 157.5,186.5C 157.5,185.833 157.167,185.5 156.5,185.5 Z"/></g>
<g><path style="opacity:0.539" fill="#ebada1" d="M 609.5,186.5 C 601.833,186.5 594.167,186.5 586.5,186.5C 591.332,185.673 596.332,185.007 601.5,184.5C 604.973,184.793 607.639,185.46 609.5,186.5 Z"/></g>
<g><path style="opacity:0.999" fill="#ef5634" d="M 465.5,187.5 C 466.708,188.234 468.041,188.567 469.5,188.5C 473.117,189.642 476.45,191.308 479.5,193.5C 479.783,194.289 480.283,194.956 481,195.5C 481.495,193.527 481.662,191.527 481.5,189.5C 480.209,188.527 480.209,187.527 481.5,186.5C 487.128,185.505 492.794,185.171 498.5,185.5C 499.45,212.16 499.45,238.827 498.5,265.5C 498.5,267.5 498.5,269.5 498.5,271.5C 493.167,271.5 487.833,271.5 482.5,271.5C 482.649,268.393 482.149,265.393 481,262.5C 479.955,263.373 479.122,264.373 478.5,265.5C 450.71,279.961 428.877,273.628 413,246.5C 407.278,228.724 410.445,212.724 422.5,198.5C 424.404,198.262 425.738,197.262 426.5,195.5C 438.072,186.511 451.072,183.845 465.5,187.5 Z M 462.5,206.5 C 463.172,207.267 464.005,207.934 465,208.5C 465.399,208.272 465.565,207.938 465.5,207.5C 479.764,217.275 482.264,229.608 473,244.5C 471.27,246.402 469.437,248.069 467.5,249.5C 466.167,249.5 465.5,250.167 465.5,251.5C 452.376,256.73 441.543,253.73 433,242.5C 426.808,230.184 428.642,219.351 438.5,210C 446.004,205.54 454.004,204.374 462.5,206.5 Z"/></g>
<g><path style="opacity:0.999" fill="#ef5634" d="M 531.5,187.5 C 532.026,189.23 533.026,190.564 534.5,191.5C 541.236,204.85 548.236,218.516 555.5,232.5C 556.403,234.636 557.569,236.636 559,238.5C 559.926,236.308 561.093,234.308 562.5,232.5C 563.688,230.278 564.688,227.945 565.5,225.5C 566.674,224.486 567.34,223.153 567.5,221.5C 567.66,219.847 568.326,218.514 569.5,217.5C 570.906,217.027 571.573,216.027 571.5,214.5C 575.704,204.659 580.704,195.326 586.5,186.5C 594.167,186.5 601.833,186.5 609.5,186.5C 603.755,197.658 598.255,208.992 593,220.5C 583.467,236.178 574.634,252.178 566.5,268.5C 565.599,269.29 564.932,270.29 564.5,271.5C 558.42,283.994 552.086,296.328 545.5,308.5C 537.833,308.5 530.167,308.5 522.5,308.5C 525.096,301.737 528.096,295.07 531.5,288.5C 536.098,280.968 540.432,273.302 544.5,265.5C 546.138,264.295 546.471,262.962 545.5,261.5C 541.072,254.981 537.406,247.981 534.5,240.5C 534.34,238.847 533.674,237.514 532.5,236.5C 522.873,220.083 513.873,203.25 505.5,186C 509.833,185.833 514.167,185.667 518.5,185.5C 523.222,185.508 527.555,186.175 531.5,187.5 Z"/></g>
<g><path style="opacity:0.037" fill="#ddd7d5" d="M 465.5,187.5 C 466.962,186.529 468.295,186.862 469.5,188.5C 468.041,188.567 466.708,188.234 465.5,187.5 Z"/></g>
<g><path style="opacity:0.051" fill="#e2cac5" d="M 531.5,187.5 C 533.446,188.035 534.446,189.368 534.5,191.5C 533.026,190.564 532.026,189.23 531.5,187.5 Z"/></g>
<g><path style="opacity:0.037" fill="#f5e6e2" d="M 166.5,189.5 C 167.251,188.427 168.251,188.26 169.5,189C 168.944,189.383 168.611,189.883 168.5,190.5C 167.833,190.167 167.167,189.833 166.5,189.5 Z"/></g>
<g><path style="opacity:0.291" fill="#fdfbfa" d="M 190.5,188.5 C 193.729,190.942 196.729,193.608 199.5,196.5C 197.097,196.393 195.264,197.393 194,199.5C 193.683,197.699 193.016,197.366 192,198.5C 191.583,197.244 190.75,196.577 189.5,196.5C 189.401,193.763 189.735,191.096 190.5,188.5 Z"/></g>
<g><path style="opacity:0.029" fill="#dadbda" d="M 481.5,189.5 C 481.662,191.527 481.495,193.527 481,195.5C 480.283,194.956 479.783,194.289 479.5,193.5C 480.167,192.167 480.833,190.833 481.5,189.5 Z"/></g>
<g><path style="opacity:0.03" fill="#f4ecea" d="M 175.5,192.5 C 176.601,191.402 177.934,191.235 179.5,192C 178.584,192.278 177.918,192.778 177.5,193.5C 176.833,193.167 176.167,192.833 175.5,192.5 Z"/></g>
<g><path style="opacity:0.047" fill="#f5eae7" d="M 184.5,196.5 C 186.167,196.5 187.833,196.5 189.5,196.5C 188.5,197.167 187.5,197.833 186.5,198.5C 185.5,198.167 184.833,197.5 184.5,196.5 Z"/></g>
<g><path style="opacity:0.51" fill="#ebac9f" d="M 426.5,195.5 C 425.738,197.262 424.404,198.262 422.5,198.5C 423.262,196.738 424.596,195.738 426.5,195.5 Z"/></g>
<g><path style="opacity:0.047" fill="#faf9f8" d="M 187.5,198.5 C 188.833,198.5 189.5,199.167 189.5,200.5C 188.5,200.167 187.833,199.5 187.5,198.5 Z"/></g>
<g><path style="opacity:0.034" fill="#f5f4f2" d="M 193.5,207.5 C 192.833,207.5 192.5,207.167 192.5,206.5C 194.409,205.321 194.742,205.654 193.5,207.5 Z"/></g>
<g><path style="opacity:0.029" fill="#e0cdc9" d="M 462.5,206.5 C 463.791,206.263 464.791,206.596 465.5,207.5C 465.565,207.938 465.399,208.272 465,208.5C 464.005,207.934 463.172,207.267 462.5,206.5 Z"/></g>
<g><path style="opacity:0.045" fill="#ddd4d2" d="M 375.5,213.5 C 374.713,215.104 373.38,215.771 371.5,215.5C 372.514,214.326 373.847,213.66 375.5,213.5 Z"/></g>
<g><path style="opacity:0.765" fill="#ebad9e" d="M 571.5,214.5 C 571.573,216.027 570.906,217.027 569.5,217.5C 569.427,215.973 570.094,214.973 571.5,214.5 Z"/></g>
<g><path style="opacity:0.29" fill="#eacac4" d="M 335.5,172.5 C 335.998,187.641 335.998,202.641 335.5,217.5C 344.833,217.5 354.167,217.5 363.5,217.5C 354.014,218.494 344.348,218.827 334.5,218.5C 334.17,202.991 334.504,187.658 335.5,172.5 Z"/></g>
<g><path style="opacity:0.02" fill="#f5f4f2" d="M 194.5,218.5 C 195.289,218.783 195.956,219.283 196.5,220C 195.184,220.528 194.517,220.028 194.5,218.5 Z"/></g>
<g><path style="opacity:0.037" fill="#f4f2f1" d="M 204.5,222.5 C 204.068,223.71 203.401,224.71 202.5,225.5C 202.285,223.821 202.952,222.821 204.5,222.5 Z"/></g>
<g><path style="opacity:0.329" fill="#e7c3bc" d="M 567.5,221.5 C 567.34,223.153 566.674,224.486 565.5,225.5C 565.229,223.62 565.896,222.287 567.5,221.5 Z"/></g>
<g><path style="opacity:0.033" fill="#f1efee" d="M 191.5,223.5 C 191.5,224.833 190.833,225.5 189.5,225.5C 189.833,224.5 190.5,223.833 191.5,223.5 Z"/></g>
<g><path style="opacity:0.021" fill="#f4ecea" d="M 177.5,231.5 C 177.842,230.662 178.508,230.328 179.5,230.5C 179.611,231.117 179.944,231.617 180.5,232C 179.281,233.795 178.281,233.628 177.5,231.5 Z"/></g>
<g><path style="opacity:0.004" fill="#fcfcfb" d="M 198.5,231.5 C 198.167,232.5 197.5,233.167 196.5,233.5C 196.5,232.167 197.167,231.5 198.5,231.5 Z"/></g>
<g><path style="opacity:0.063" fill="#ded6d5" d="M 555.5,232.5 C 557.833,232.5 560.167,232.5 562.5,232.5C 561.093,234.308 559.926,236.308 559,238.5C 557.569,236.636 556.403,234.636 555.5,232.5 Z"/></g>
<g><path style="opacity:0.032" fill="#e0d5d4" d="M 365.5,237.5 C 355.681,238.494 345.681,238.827 335.5,238.5C 335.828,250.012 335.495,261.346 334.5,272.5C 334.5,260.833 334.5,249.167 334.5,237.5C 344.833,237.5 355.167,237.5 365.5,237.5 Z"/></g>
<g><path style="opacity:0.073" fill="#e3c8c3" d="M 532.5,236.5 C 533.674,237.514 534.34,238.847 534.5,240.5C 532.896,239.713 532.229,238.38 532.5,236.5 Z"/></g>
<g><path style="opacity:0.043" fill="#f1efee" d="M 157.5,239.5 C 158.623,238.243 159.289,238.576 159.5,240.5C 158.833,240.167 158.167,239.833 157.5,239.5 Z"/></g>
<g><path style="opacity:0.053" fill="#efdcd8" d="M 177.5,241.5 C 174.833,242.833 172.167,242.833 169.5,241.5C 172.376,241.208 175.043,241.208 177.5,241.5 Z"/></g>
<g><path style="opacity:0.059" fill="#e1d0cd" d="M 467.5,249.5 C 467.167,250.5 466.5,251.167 465.5,251.5C 465.5,250.167 466.167,249.5 467.5,249.5 Z"/></g>
<g><path style="opacity:0.51" fill="#e7b9b0" d="M 545.5,261.5 C 546.471,262.962 546.138,264.295 544.5,265.5C 544.062,265.565 543.728,265.399 543.5,265C 544.305,263.887 544.972,262.721 545.5,261.5 Z"/></g>
<g><path style="opacity:0.067" fill="#e0cdc9" d="M 566.5,268.5 C 566.715,270.179 566.048,271.179 564.5,271.5C 564.932,270.29 565.599,269.29 566.5,268.5 Z"/></g>
<g><path style="opacity:0.271" fill="#e8c9c3" d="M 498.5,265.5 C 499.468,267.607 499.802,269.941 499.5,272.5C 493.5,272.5 487.5,272.5 481.5,272.5C 481.662,270.473 481.495,268.473 481,266.5C 480.049,266.116 479.216,265.783 478.5,265.5C 479.122,264.373 479.955,263.373 481,262.5C 482.149,265.393 482.649,268.393 482.5,271.5C 487.833,271.5 493.167,271.5 498.5,271.5C 498.5,269.5 498.5,267.5 498.5,265.5 Z"/></g>
<g><path style="opacity:0.311" fill="#ecbdb4" d="M 522.5,308.5 C 530.167,308.5 537.833,308.5 545.5,308.5C 541.635,309.224 537.635,309.891 533.5,310.5C 529.114,309.953 525.447,309.286 522.5,308.5 Z"/></g>
</svg>
